<?xml version="1.0" encoding="UTF-8"?>
<!DOCTYPE svg PUBLIC "-//W3C//DTD SVG 1.1//EN" "http://www.w3.org/Graphics/SVG/1.1/DTD/svg11.dtd">
<svg xmlns="http://www.w3.org/2000/svg" version="1.1" width="730px" height="217px" style="shape-rendering:geometricPrecision; text-rendering:geometricPrecision; image-rendering:optimizeQuality; fill-rule:evenodd; clip-rule:evenodd" xmlns:xlink="http://www.w3.org/1999/xlink">
<g><path style="opacity:0.188" fill="#d7d7d7" d="M 671.5,30.5 C 674.518,30.3354 677.518,30.502 680.5,31C 681.126,31.7504 681.626,32.5838 682,33.5C 683.019,32.3128 684.186,31.3128 685.5,30.5C 686.484,33.4281 686.817,36.4281 686.5,39.5C 683.5,40.8333 680.5,40.8333 677.5,39.5C 677.662,37.4727 677.495,35.4727 677,33.5C 676.964,35.9412 676.131,37.9412 674.5,39.5C 672.736,36.7852 671.736,33.7852 671.5,30.5 Z"/></g>
<g><path style="opacity:0.212" fill="#bdbdbc" d="M 122.5,47.5 C 88.8166,46.8403 55.4833,47.507 22.5,49.5C 21.596,48.791 21.2627,47.791 21.5,46.5C 55.3375,46.1684 89.0041,46.5017 122.5,47.5 Z"/></g>
<g><path style="opacity:0.315" fill="#f6e89c" d="M 178.5,45.5 C 184.167,46.1667 189.833,46.8333 195.5,47.5C 175.167,47.5 154.833,47.5 134.5,47.5C 134.5,47.1667 134.5,46.8333 134.5,46.5C 148.99,45.504 163.657,45.1707 178.5,45.5 Z"/></g>
<g><path style="opacity:0.341" fill="#f8edae" d="M 178.5,45.5 C 186.889,45.1968 195.222,45.5301 203.5,46.5C 204.614,47.723 204.781,49.0563 204,50.5C 201.667,55.1667 199.333,59.8333 197,64.5C 194.812,66.0973 192.646,66.4306 190.5,65.5C 190.5,65.1667 190.5,64.8333 190.5,64.5C 192.099,64.7678 193.432,64.4345 194.5,63.5C 196.924,60.9922 198.59,57.9922 199.5,54.5C 201.834,52.8243 202.834,50.491 202.5,47.5C 200.167,47.5 197.833,47.5 195.5,47.5C 189.833,46.8333 184.167,46.1667 178.5,45.5 Z"/></g>
<g><path style="opacity:0.244" fill="#b9b9b9" d="M 282.5,47.5 C 289.982,46.508 297.648,46.1746 305.5,46.5C 305.737,47.791 305.404,48.791 304.5,49.5C 297.576,47.5367 290.243,46.8701 282.5,47.5 Z"/></g>
<g><path style="opacity:0.235" fill="#bababa" d="M 558.5,47.5 C 552.5,47.5 546.5,47.5 540.5,47.5C 540.833,49.5 541.167,51.5 541.5,53.5C 539.837,51.5615 539.171,49.2282 539.5,46.5C 546.022,46.1765 552.355,46.5098 558.5,47.5 Z"/></g>
<g><path style="opacity:0.27" fill="#c4c4c4" d="M 625.5,54.5 C 625.674,52.139 626.007,49.8056 626.5,47.5C 620.5,47.5 614.5,47.5 608.5,47.5C 614.689,45.5928 621.022,45.4261 627.5,47C 627.833,47.3333 628.167,47.6667 628.5,48C 627.578,50.294 626.578,52.4606 625.5,54.5 Z"/></g>
<g><path style="opacity:0.789" fill="#7a7a7a" d="M 122.5,47.5 C 123.833,48.1667 123.833,48.8333 122.5,49.5C 122.167,49.5 121.833,49.5 121.5,49.5C 89.0043,48.5017 56.3376,48.1684 23.5,48.5C 23.5,49.5 23.5,50.5 23.5,51.5C 22.6618,51.1583 22.3284,50.4916 22.5,49.5C 55.4833,47.507 88.8166,46.8403 122.5,47.5 Z"/></g>
<g><path style="opacity:0.807" fill="#e8c342" d="M 134.5,47.5 C 154.833,47.5 175.167,47.5 195.5,47.5C 197.833,47.5 200.167,47.5 202.5,47.5C 202.834,50.491 201.834,52.8243 199.5,54.5C 199.357,52.7376 199.691,51.0709 200.5,49.5C 178.5,48.1667 156.5,48.1667 134.5,49.5C 134.145,50.5223 133.478,51.189 132.5,51.5C 132.66,49.847 133.326,48.5137 134.5,47.5 Z"/></g>
<g><path style="opacity:0.992" fill="#676767" d="M 121.5,49.5 C 120.766,50.7079 120.433,52.0413 120.5,53.5C 119.341,57.1513 117.674,60.4846 115.5,63.5C 104.068,64.1467 92.7348,64.8133 81.5,65.5C 80.5016,101.329 80.1682,137.329 80.5,173.5C 80.1667,174.5 79.5,175.167 78.5,175.5C 77.0937,175.973 76.427,176.973 76.5,178.5C 75.8333,179.5 75.1667,180.5 74.5,181.5C 71.8915,181.6 69.5582,180.933 67.5,179.5C 66.075,178.078 65.075,176.411 64.5,174.5C 63.8457,138.039 63.1791,101.706 62.5,65.5C 51.9626,64.7895 41.2959,64.1229 30.5,63.5C 30.7148,61.8212 30.0481,60.8212 28.5,60.5C 26.5832,57.669 24.9166,54.669 23.5,51.5C 23.5,50.5 23.5,49.5 23.5,48.5C 56.3376,48.1684 89.0043,48.5017 121.5,49.5 Z"/></g>
<g><path style="opacity:1" fill="#f0bf25" d="M 199.5,54.5 C 198.59,57.9922 196.924,60.9922 194.5,63.5C 172.831,63.6666 151.164,63.5 129.5,63C 128.62,61.6439 128.286,60.1439 128.5,58.5C 129.468,55.8997 130.801,53.5664 132.5,51.5C 133.478,51.189 134.145,50.5223 134.5,49.5C 156.5,48.1667 178.5,48.1667 200.5,49.5C 199.691,51.0709 199.357,52.7376 199.5,54.5 Z"/></g>
<g><path style="opacity:0.984" fill="#686868" d="M 238.5,100.5 C 241.243,98.7607 243.243,96.4274 244.5,93.5C 246.914,92.0892 248.581,90.0892 249.5,87.5C 251.914,86.0892 253.581,84.0892 254.5,81.5C 256.86,80.135 258.527,78.135 259.5,75.5C 261.587,74.4154 262.92,72.7488 263.5,70.5C 265.262,69.7377 266.262,68.4044 266.5,66.5C 266.833,65.5 267.5,64.8333 268.5,64.5C 273.915,59.421 278.582,53.7543 282.5,47.5C 290.243,46.8701 297.576,47.5367 304.5,49.5C 303.833,50.8333 302.833,51.8333 301.5,52.5C 300.094,52.9731 299.427,53.9731 299.5,55.5C 299.167,56.5 298.5,57.1667 297.5,57.5C 295.738,58.2623 294.738,59.5956 294.5,61.5C 294.167,62.5 293.5,63.1667 292.5,63.5C 290.738,64.2623 289.738,65.5956 289.5,67.5C 289.167,68.5 288.5,69.1667 287.5,69.5C 284.255,69.6781 283.255,71.0114 284.5,73.5C 284.167,74.5 283.5,75.1667 282.5,75.5C 281.094,75.9731 280.427,76.9731 280.5,78.5C 279.833,79.8333 278.833,80.8333 277.5,81.5C 276.094,81.9731 275.427,82.9731 275.5,84.5C 272.046,89.126 268.379,93.626 264.5,98C 266.246,100.659 267.58,103.492 268.5,106.5C 269.473,112.797 272.473,117.797 277.5,121.5C 278.338,121.842 278.672,122.508 278.5,123.5C 278.427,125.027 279.094,126.027 280.5,126.5C 281.674,127.514 282.34,128.847 282.5,130.5C 282.427,132.027 283.094,133.027 284.5,133.5C 285.674,134.514 286.34,135.847 286.5,137.5C 286.427,139.027 287.094,140.027 288.5,140.5C 288.338,142.527 288.505,144.527 289,146.5C 289.333,146.167 289.667,145.833 290,145.5C 290.708,146.381 291.542,147.047 292.5,147.5C 293.674,148.514 294.34,149.847 294.5,151.5C 294.427,153.027 295.094,154.027 296.5,154.5C 298.008,156.181 299.008,158.181 299.5,160.5C 299.427,162.027 300.094,163.027 301.5,163.5C 301.674,165.861 302.007,168.194 302.5,170.5C 295.952,171.032 289.618,170.365 283.5,168.5C 281.012,165.534 279.012,162.201 277.5,158.5C 277.715,156.821 277.048,155.821 275.5,155.5C 272.566,150.632 269.9,145.632 267.5,140.5C 267.759,138.011 266.759,136.344 264.5,135.5C 263.662,135.158 263.328,134.492 263.5,133.5C 263.66,131.801 263.494,130.134 263,128.5C 262.23,129.598 261.397,129.598 260.5,128.5C 259.326,127.486 258.66,126.153 258.5,124.5C 257.587,122.914 257.587,121.414 258.5,120C 256.935,118.588 255.269,117.421 253.5,116.5C 252.528,114.507 251.195,114.174 249.5,115.5C 248.094,115.973 247.427,116.973 247.5,118.5C 244.179,123.152 240.513,127.485 236.5,131.5C 235.883,131.611 235.383,131.944 235,132.5C 234.5,145.162 234.333,157.829 234.5,170.5C 228.833,170.5 223.167,170.5 217.5,170.5C 217.5,129.5 217.5,88.5 217.5,47.5C 223.167,47.5 228.833,47.5 234.5,47.5C 234.167,66.5117 234.5,85.5117 235.5,104.5C 237.288,103.717 238.288,102.384 238.5,100.5 Z"/></g>
<g><path style="opacity:0.271" fill="#c7c7c7" d="M 318.5,47.5 C 321.573,49.5691 323.906,52.2358 325.5,55.5C 322.427,53.4309 320.094,50.7642 318.5,47.5 Z"/></g>
<g><path style="opacity:0.993" fill="#6a6a6a" d="M 318.5,47.5 C 320.094,50.7642 322.427,53.4309 325.5,55.5C 326.5,55.8333 327.167,56.5 327.5,57.5C 328.419,60.0892 330.086,62.0892 332.5,63.5C 335.101,67.7706 338.434,71.4372 342.5,74.5C 345.77,79.4397 349.77,83.7731 354.5,87.5C 356.43,91.1002 359.097,94.1002 362.5,96.5C 363.5,96.8333 364.167,97.5 364.5,98.5C 366.766,102.436 369.766,105.769 373.5,108.5C 375.766,112.436 378.766,115.769 382.5,118.5C 384.144,120.481 385.81,122.481 387.5,124.5C 388.5,99.5089 388.833,74.5089 388.5,49.5C 393.74,48.5509 399.073,48.2175 404.5,48.5C 404.667,86.5015 404.5,124.501 404,162.5C 403.333,163.167 402.667,163.833 402,164.5C 401.082,162.624 399.582,161.624 397.5,161.5C 393.862,157.526 390.195,153.526 386.5,149.5C 386.5,147.5 385.5,146.5 383.5,146.5C 377.13,140.132 371.13,133.465 365.5,126.5C 365.167,124.167 363.833,122.833 361.5,122.5C 359.167,119.833 356.833,117.167 354.5,114.5C 354.5,112.5 353.5,111.5 351.5,111.5C 349.5,109.167 347.5,106.833 345.5,104.5C 345.5,102.5 344.5,101.5 342.5,101.5C 342.5,100.167 341.833,99.5 340.5,99.5C 339.833,98.5 339.167,97.5 338.5,96.5C 337.952,94.4677 336.619,93.4677 334.5,93.5C 334.5,119.167 334.5,144.833 334.5,170.5C 328.833,170.5 323.167,170.5 317.5,170.5C 316.34,129.904 316.173,89.2377 317,48.5C 317.383,47.944 317.883,47.6107 318.5,47.5 Z"/></g>
<g><path style="opacity:0.791" fill="#727272" d="M 388.5,47.5 C 394.167,47.5 399.833,47.5 405.5,47.5C 405.667,87.8347 405.5,128.168 405,168.5C 403.961,167.29 402.794,166.29 401.5,165.5C 399.833,164.5 398.5,163.167 397.5,161.5C 399.582,161.624 401.082,162.624 402,164.5C 402.667,163.833 403.333,163.167 404,162.5C 404.5,124.501 404.667,86.5015 404.5,48.5C 399.073,48.2175 393.74,48.5509 388.5,49.5C 388.5,48.8333 388.5,48.1667 388.5,47.5 Z"/></g>
<g><path style="opacity:0.984" fill="#6a6a6a" d="M 497.5,48.5 C 500.335,50.7851 503.668,52.1184 507.5,52.5C 509.153,52.6596 510.486,53.3263 511.5,54.5C 512.634,57.0338 514.634,58.3671 517.5,58.5C 517.833,58.5 518.167,58.5 518.5,58.5C 518.5,60.5 519.5,61.5 521.5,61.5C 524.5,63.1667 526.833,65.5 528.5,68.5C 529.08,70.7488 530.413,72.4154 532.5,73.5C 532.427,75.0269 533.094,76.0269 534.5,76.5C 534.427,78.0269 535.094,79.0269 536.5,79.5C 539.134,83.3947 540.801,87.728 541.5,92.5C 542.199,102.151 542.532,111.817 542.5,121.5C 540.219,126.155 538.552,131.155 537.5,136.5C 528.895,153.771 515.228,164.771 496.5,169.5C 488.188,170.24 479.854,170.573 471.5,170.5C 469.095,169.232 466.428,168.565 463.5,168.5C 453.926,166.385 445.926,161.718 439.5,154.5C 439.027,153.094 438.027,152.427 436.5,152.5C 433.035,149.375 430.368,145.708 428.5,141.5C 428.25,139.326 427.25,137.659 425.5,136.5C 425.293,133.759 424.293,131.426 422.5,129.5C 421.087,126.781 420.42,123.781 420.5,120.5C 420.5,112.833 420.5,105.167 420.5,97.5C 420.5,97.1667 420.5,96.8333 420.5,96.5C 421.924,94.4855 422.59,92.1522 422.5,89.5C 422.5,89.1667 422.5,88.8333 422.5,88.5C 424.834,86.8243 425.834,84.491 425.5,81.5C 427.408,80.5144 428.408,78.8477 428.5,76.5C 429.906,76.0269 430.573,75.0269 430.5,73.5C 433.243,71.7607 435.243,69.4274 436.5,66.5C 437.167,65.1667 438.167,64.1667 439.5,63.5C 442.089,62.5806 444.089,60.914 445.5,58.5C 445.973,57.0937 446.973,56.427 448.5,56.5C 450.848,56.4077 452.514,55.4077 453.5,53.5C 458.422,52.3638 463.089,50.6971 467.5,48.5C 477.369,45.9005 487.369,45.9005 497.5,48.5 Z M 487.5,65.5 C 506.049,69.0531 518.382,79.7198 524.5,97.5C 524.98,102.822 525.313,108.155 525.5,113.5C 524.48,119.239 522.813,124.906 520.5,130.5C 519.094,130.973 518.427,131.973 518.5,133.5C 517.094,133.973 516.427,134.973 516.5,136.5C 513.833,138.5 511.5,140.833 509.5,143.5C 507.147,144.34 505.147,145.674 503.5,147.5C 501.181,147.992 499.181,148.992 497.5,150.5C 494.273,150.676 491.273,151.343 488.5,152.5C 488.167,152.5 487.833,152.5 487.5,152.5C 478.513,153.102 469.847,151.768 461.5,148.5C 461.158,147.662 460.492,147.328 459.5,147.5C 458.564,146.026 457.23,145.026 455.5,144.5C 453.54,142.844 451.54,141.177 449.5,139.5C 449.167,138.5 448.5,137.833 447.5,137.5C 447.573,135.973 446.906,134.973 445.5,134.5C 445.573,132.973 444.906,131.973 443.5,131.5C 443.34,129.847 442.674,128.514 441.5,127.5C 440.871,124.603 439.871,121.936 438.5,119.5C 438.5,118.5 438.5,117.5 438.5,116.5C 437.394,109.455 437.727,102.455 439.5,95.5C 440.537,94.0697 441.204,92.403 441.5,90.5C 445.441,84.2264 450.108,78.5597 455.5,73.5C 457.853,72.6597 459.853,71.3264 461.5,69.5C 462.492,69.6716 463.158,69.3382 463.5,68.5C 471.301,66.0784 479.301,65.0784 487.5,65.5 Z"/></g>
<g><path style="opacity:0.991" fill="#686868" d="M 558.5,47.5 C 558.166,50.491 559.166,52.8243 561.5,54.5C 561.5,54.8333 561.5,55.1667 561.5,55.5C 561.677,59.7076 563.01,63.3743 565.5,66.5C 565.345,69.716 566.345,72.3826 568.5,74.5C 568.345,77.716 569.345,80.3826 571.5,82.5C 571.5,82.8333 571.5,83.1667 571.5,83.5C 571.77,87.3576 573.103,90.691 575.5,93.5C 575.5,93.8333 575.5,94.1667 575.5,94.5C 575.67,96.8484 576.003,99.1817 576.5,101.5C 576.64,103.03 577.307,104.03 578.5,104.5C 579.62,108.738 581.287,112.738 583.5,116.5C 584.386,115.675 584.719,114.675 584.5,113.5C 586.585,111.316 587.585,108.649 587.5,105.5C 590.585,100.647 592.585,95.3135 593.5,89.5C 595.074,87.8984 595.741,85.8984 595.5,83.5C 597.472,80.9164 598.472,77.9164 598.5,74.5C 599.117,74.3893 599.617,74.056 600,73.5C 602.095,68.6533 603.595,63.6533 604.5,58.5C 606.99,55.3743 608.323,51.7076 608.5,47.5C 614.5,47.5 620.5,47.5 626.5,47.5C 626.007,49.8056 625.674,52.139 625.5,54.5C 625.5,54.8333 625.5,55.1667 625.5,55.5C 624.069,56.7804 623.402,58.4471 623.5,60.5C 623.737,61.791 623.404,62.791 622.5,63.5C 620.345,65.6174 619.345,68.284 619.5,71.5C 619.737,72.791 619.404,73.791 618.5,74.5C 616.603,76.6975 615.603,79.3642 615.5,82.5C 615.737,83.791 615.404,84.791 614.5,85.5C 612.864,86.7489 611.697,88.4156 611,90.5C 609.596,96.2085 608.096,101.875 606.5,107.5C 604.926,109.102 604.259,111.102 604.5,113.5C 600.154,121.223 597.154,129.557 595.5,138.5C 593.72,139.99 593.054,141.99 593.5,144.5C 593.598,146.553 592.931,148.22 591.5,149.5C 588.804,152.921 587.47,156.921 587.5,161.5C 587.443,162.609 587.11,163.609 586.5,164.5C 585.198,165.357 583.865,165.857 582.5,166C 581.438,162.953 580.105,160.12 578.5,157.5C 578.741,155.102 578.074,153.102 576.5,151.5C 575.596,150.791 575.263,149.791 575.5,148.5C 575.598,146.447 574.931,144.78 573.5,143.5C 571.928,140.785 570.928,137.785 570.5,134.5C 570.598,132.447 569.931,130.78 568.5,129.5C 568.741,127.102 568.074,125.102 566.5,123.5C 565.251,117.412 563.251,111.745 560.5,106.5C 558.313,102.105 556.646,97.4379 555.5,92.5C 555.598,90.4471 554.931,88.7804 553.5,87.5C 552.596,86.791 552.263,85.791 552.5,84.5C 551.935,80.4632 550.601,76.7966 548.5,73.5C 548.741,71.1016 548.074,69.1016 546.5,67.5C 545.596,66.791 545.263,65.791 545.5,64.5C 545.598,62.4471 544.931,60.7804 543.5,59.5C 542.262,57.7857 541.595,55.7857 541.5,53.5C 541.167,51.5 540.833,49.5 540.5,47.5C 546.5,47.5 552.5,47.5 558.5,47.5 Z"/></g>
<g><path style="opacity:1" fill="#fabd06" d="M 135.5,49.5 C 156.169,49.3334 176.836,49.5 197.5,50C 198.785,54.3099 197.785,58.1433 194.5,61.5C 174.167,62.8333 153.833,62.8333 133.5,61.5C 132.5,60.6667 131.5,59.8333 130.5,59C 132.739,56.1852 134.406,53.0185 135.5,49.5 Z"/></g>
<g><path style="opacity:0.208" fill="#b0b0b0" d="M 497.5,48.5 C 501.149,49.2667 504.482,50.6001 507.5,52.5C 503.668,52.1184 500.335,50.7851 497.5,48.5 Z"/></g>
<g><path style="opacity:0.149" fill="#dbd9d9" d="M 121.5,49.5 C 121.833,49.5 122.167,49.5 122.5,49.5C 122.34,51.153 121.674,52.4863 120.5,53.5C 120.433,52.0413 120.766,50.7079 121.5,49.5 Z"/></g>
<g><path style="opacity:0.988" fill="#676767" d="M 658.5,51.5 C 658.677,55.7076 660.01,59.3743 662.5,62.5C 662.5,62.8333 662.5,63.1667 662.5,63.5C 662.345,66.716 663.345,69.3826 665.5,71.5C 665.5,71.8333 665.5,72.1667 665.5,72.5C 667.017,78.555 668.851,84.555 671,90.5C 671.383,91.056 671.883,91.3893 672.5,91.5C 672.528,94.9164 673.528,97.9164 675.5,100.5C 675.345,103.716 676.345,106.383 678.5,108.5C 679.363,110.421 680.029,112.421 680.5,114.5C 680.345,117.716 681.345,120.383 683.5,122.5C 683.345,125.716 684.345,128.383 686.5,130.5C 686.5,130.833 686.5,131.167 686.5,131.5C 687.35,135.553 688.516,139.553 690,143.5C 690.383,144.056 690.883,144.389 691.5,144.5C 691.5,144.833 691.5,145.167 691.5,145.5C 691.415,148.649 692.415,151.316 694.5,153.5C 694.345,156.716 695.345,159.383 697.5,161.5C 697.41,164.152 698.076,166.485 699.5,168.5C 693.926,170.453 687.926,171.12 681.5,170.5C 680.588,165.421 678.921,160.755 676.5,156.5C 676.67,155.178 676.337,154.011 675.5,153C 662.833,152.333 650.167,152.333 637.5,153C 636.748,153.671 636.414,154.504 636.5,155.5C 634.528,158.084 633.528,161.084 633.5,164.5C 633.396,166.703 632.73,168.703 631.5,170.5C 625.5,170.5 619.5,170.5 613.5,170.5C 614.348,166.108 615.348,161.775 616.5,157.5C 620.254,150.641 622.92,143.307 624.5,135.5C 626.585,133.316 627.585,130.649 627.5,127.5C 629.806,123.915 631.139,119.915 631.5,115.5C 633.655,113.383 634.655,110.716 634.5,107.5C 637.254,103.305 638.921,98.6381 639.5,93.5C 641.94,89.1832 643.607,84.5166 644.5,79.5C 648.671,69.6697 652.671,59.6697 656.5,49.5C 657.182,50.2427 657.849,50.9094 658.5,51.5 Z M 659.5,109.5 C 659.733,112.542 660.733,115.208 662.5,117.5C 662.928,120.785 663.928,123.785 665.5,126.5C 665.756,128.937 666.423,131.271 667.5,133.5C 660.197,134.497 652.863,134.831 645.5,134.5C 646.167,131.5 646.833,128.5 647.5,125.5C 649.204,122.061 650.538,118.395 651.5,114.5C 653.072,110.974 654.572,107.307 656,103.5C 657.082,105.618 658.249,107.618 659.5,109.5 Z"/></g>
<g><path style="opacity:0.165" fill="#b0b0b0" d="M 282.5,47.5 C 278.582,53.7543 273.915,59.421 268.5,64.5C 272.418,58.2457 277.085,52.579 282.5,47.5 Z"/></g>
<g><path style="opacity:0.722" fill="#959595" d="M 467.5,48.5 C 463.089,50.6971 458.422,52.3638 453.5,53.5C 457.664,50.6657 462.331,48.999 467.5,48.5 Z"/></g>
<g><path style="opacity:0.373" fill="#b2b2b2" d="M 558.5,47.5 C 560.065,49.5093 561.065,51.8427 561.5,54.5C 559.166,52.8243 558.166,50.491 558.5,47.5 Z"/></g>
<g><path style="opacity:0.024" fill="#c9c9c9" d="M 301.5,52.5 C 301.573,54.0269 300.906,55.0269 299.5,55.5C 299.427,53.9731 300.094,52.9731 301.5,52.5 Z"/></g>
<g><path style="opacity:0.529" fill="#aaaaaa" d="M 608.5,47.5 C 608.323,51.7076 606.99,55.3743 604.5,58.5C 605.065,54.4632 606.399,50.7966 608.5,47.5 Z"/></g>
<g><path style="opacity:0.596" fill="#b5b5b5" d="M 658.5,51.5 C 657.849,50.9094 657.182,50.2427 656.5,49.5C 652.671,59.6697 648.671,69.6697 644.5,79.5C 647.16,69.6852 650.327,60.0185 654,50.5C 656.359,46.4232 657.859,46.7566 658.5,51.5 Z"/></g>
<g><path style="opacity:0.365" fill="#c8c8c8" d="M 658.5,51.5 C 660.204,54.9385 661.538,58.6052 662.5,62.5C 660.01,59.3743 658.677,55.7076 658.5,51.5 Z"/></g>
<g><path style="opacity:0.169" fill="#c7c7c7" d="M 238.5,100.5 C 238.288,102.384 237.288,103.717 235.5,104.5C 234.5,85.5117 234.167,66.5117 234.5,47.5C 228.833,47.5 223.167,47.5 217.5,47.5C 217.5,88.5 217.5,129.5 217.5,170.5C 216.501,129.337 216.168,88.0034 216.5,46.5C 222.621,46.3505 228.621,46.3505 234.5,46.5C 235.333,65.1577 235.833,83.8244 236,102.5C 236.708,101.619 237.542,100.953 238.5,100.5 Z"/></g>
<g><path style="opacity:0.115" fill="#d9d9d9" d="M 388.5,46.5 C 388.5,46.8333 388.5,47.1667 388.5,47.5C 388.5,48.1667 388.5,48.8333 388.5,49.5C 388.833,74.5089 388.5,99.5089 387.5,124.5C 385.81,122.481 384.144,120.481 382.5,118.5C 382.5,118.167 382.5,117.833 382.5,117.5C 384.129,118.625 385.629,119.959 387,121.5C 387.168,96.33 387.668,71.33 388.5,46.5 Z"/></g>
<g><path style="opacity:0.373" fill="#9f9f9f" d="M 453.5,53.5 C 452.514,55.4077 450.848,56.4077 448.5,56.5C 449.659,54.7497 451.326,53.7497 453.5,53.5 Z"/></g>
<g><path style="opacity:0.506" fill="#9e9e9e" d="M 511.5,54.5 C 513.853,55.3403 515.853,56.6736 517.5,58.5C 514.634,58.3671 512.634,57.0338 511.5,54.5 Z"/></g>
<g><path style="opacity:0.345" fill="#bababa" d="M 327.5,57.5 C 329.914,58.9108 331.581,60.9108 332.5,63.5C 330.086,62.0892 328.419,60.0892 327.5,57.5 Z"/></g>
<g><path style="opacity:0.396" fill="#aaaaaa" d="M 561.5,55.5 C 563.204,58.9385 564.538,62.6052 565.5,66.5C 563.01,63.3743 561.677,59.7076 561.5,55.5 Z"/></g>
<g><path style="opacity:0.137" fill="#d4d4d4" d="M 625.5,55.5 C 625.598,57.5529 624.931,59.2196 623.5,60.5C 623.402,58.4471 624.069,56.7804 625.5,55.5 Z"/></g>
<g><path style="opacity:0.024" fill="#cccccc" d="M 297.5,57.5 C 297.262,59.4044 296.262,60.7377 294.5,61.5C 294.738,59.5956 295.738,58.2623 297.5,57.5 Z"/></g>
<g><path style="opacity:0.271" fill="#b6b6b6" d="M 518.5,58.5 C 519.833,59.1667 520.833,60.1667 521.5,61.5C 519.5,61.5 518.5,60.5 518.5,58.5 Z"/></g>
<g><path style="opacity:0.541" fill="#b2b2b2" d="M 28.5,60.5 C 30.0481,60.8212 30.7148,61.8212 30.5,63.5C 29.5987,62.7095 28.9321,61.7095 28.5,60.5 Z"/></g>
<g><path style="opacity:0.38" fill="#a3a3a3" d="M 445.5,58.5 C 444.089,60.914 442.089,62.5806 439.5,63.5C 440.911,61.086 442.911,59.4194 445.5,58.5 Z"/></g>
<g><path style="opacity:0.149" fill="#b8b8b8" d="M 543.5,59.5 C 544.931,60.7804 545.598,62.4471 545.5,64.5C 544.069,63.2196 543.402,61.5529 543.5,59.5 Z"/></g>
<g><path style="opacity:0.699" fill="#e8c148" d="M 128.5,58.5 C 128.286,60.1439 128.62,61.6439 129.5,63C 151.164,63.5 172.831,63.6666 194.5,63.5C 193.432,64.4345 192.099,64.7678 190.5,64.5C 169.167,64.5 147.833,64.5 126.5,64.5C 126.259,62.1016 126.926,60.1016 128.5,58.5 Z"/></g>
<g><path style="opacity:0.4" fill="#9e9e9e" d="M 30.5,63.5 C 41.2959,64.1229 51.9626,64.7895 62.5,65.5C 62.5,65.8333 62.5,66.1667 62.5,66.5C 52.4944,66.6665 42.4944,66.4998 32.5,66C 31.6195,65.2917 30.9528,64.4584 30.5,63.5 Z"/></g>
<g><path style="opacity:0.509" fill="#8b8b8b" d="M 115.5,63.5 C 115.672,64.4916 115.338,65.1583 114.5,65.5C 103.5,65.5 92.5,65.5 81.5,65.5C 92.7348,64.8133 104.068,64.1467 115.5,63.5 Z"/></g>
<g><path style="opacity:0.071" fill="#faeba3" d="M 134.5,46.5 C 134.5,46.8333 134.5,47.1667 134.5,47.5C 133.326,48.5137 132.66,49.847 132.5,51.5C 130.801,53.5664 129.468,55.8997 128.5,58.5C 126.926,60.1016 126.259,62.1016 126.5,64.5C 147.833,64.5 169.167,64.5 190.5,64.5C 190.5,64.8333 190.5,65.1667 190.5,65.5C 168.5,65.5 146.5,65.5 124.5,65.5C 125.491,60.5153 127.324,55.8487 130,51.5C 131.067,49.3083 132.567,47.6417 134.5,46.5 Z"/></g>
<g><path style="opacity:0.455" fill="#aaaaaa" d="M 332.5,63.5 C 336.566,66.5628 339.899,70.2294 342.5,74.5C 338.434,71.4372 335.101,67.7706 332.5,63.5 Z"/></g>
<g><path style="opacity:0.093" fill="#b7b7b7" d="M 487.5,65.5 C 479.301,65.0784 471.301,66.0784 463.5,68.5C 466.422,66.4688 469.755,65.3022 473.5,65C 478.352,64.1849 483.019,64.3516 487.5,65.5 Z"/></g>
<g><path style="opacity:0.039" fill="#cecece" d="M 292.5,63.5 C 292.262,65.4044 291.262,66.7377 289.5,67.5C 289.738,65.5956 290.738,64.2623 292.5,63.5 Z"/></g>
<g><path style="opacity:0.286" fill="#c0c0c0" d="M 622.5,63.5 C 622.267,66.5418 621.267,69.2084 619.5,71.5C 619.345,68.284 620.345,65.6174 622.5,63.5 Z"/></g>
<g><path style="opacity:0.306" fill="#bebebe" d="M 604.5,58.5 C 603.595,63.6533 602.095,68.6533 600,73.5C 599.617,74.056 599.117,74.3893 598.5,74.5C 599.932,68.8587 601.932,63.5254 604.5,58.5 Z"/></g>
<g><path style="opacity:0.31" fill="#b4b4b4" d="M 662.5,63.5 C 663.871,65.936 664.871,68.6027 665.5,71.5C 663.345,69.3826 662.345,66.716 662.5,63.5 Z"/></g>
<g><path style="opacity:0.282" fill="#bebebe" d="M 266.5,66.5 C 266.262,68.4044 265.262,69.7377 263.5,70.5C 263.738,68.5956 264.738,67.2623 266.5,66.5 Z"/></g>
<g><path style="opacity:0.373" fill="#aaaaaa" d="M 436.5,66.5 C 435.243,69.4274 433.243,71.7607 430.5,73.5C 431.757,70.5726 433.757,68.2393 436.5,66.5 Z"/></g>
<g><path style="opacity:0.298" fill="#b1b1b1" d="M 528.5,68.5 C 530.587,69.5846 531.92,71.2512 532.5,73.5C 530.413,72.4154 529.08,70.7488 528.5,68.5 Z"/></g>
<g><path style="opacity:0.341" fill="#b0b0b0" d="M 565.5,66.5 C 566.871,68.936 567.871,71.6027 568.5,74.5C 566.345,72.3826 565.345,69.716 565.5,66.5 Z"/></g>
<g><path style="opacity:0.816" fill="#a7a7a7" d="M 287.5,69.5 C 287.262,71.4044 286.262,72.7377 284.5,73.5C 283.255,71.0114 284.255,69.6781 287.5,69.5 Z"/></g>
<g><path style="opacity:0.188" fill="#adadad" d="M 546.5,67.5 C 548.074,69.1016 548.741,71.1016 548.5,73.5C 547.262,71.7857 546.595,69.7857 546.5,67.5 Z"/></g>
<g><path style="opacity:0.438" fill="#979797" d="M 62.5,65.5 C 63.1791,101.706 63.8457,138.039 64.5,174.5C 63.8826,174.389 63.3826,174.056 63,173.5C 61.9703,163.197 61.4703,152.864 61.5,142.5C 62.2644,117.005 62.5977,91.6718 62.5,66.5C 62.5,66.1667 62.5,65.8333 62.5,65.5 Z"/></g>
<g><path style="opacity:0.004" fill="#d0d0d0" d="M 461.5,69.5 C 459.853,71.3264 457.853,72.6597 455.5,73.5C 456.802,71.1782 458.802,69.8449 461.5,69.5 Z"/></g>
<g><path style="opacity:0.255" fill="#acacac" d="M 263.5,70.5 C 262.92,72.7488 261.587,74.4154 259.5,75.5C 260.08,73.2512 261.413,71.5846 263.5,70.5 Z"/></g>
<g><path style="opacity:0.51" fill="#b0b0b0" d="M 342.5,74.5 C 347.23,78.2269 351.23,82.5603 354.5,87.5C 349.77,83.7731 345.77,79.4397 342.5,74.5 Z"/></g>
<g><path style="opacity:0.149" fill="#bbbbbb" d="M 430.5,73.5 C 430.573,75.0269 429.906,76.0269 428.5,76.5C 428.427,74.9731 429.094,73.9731 430.5,73.5 Z"/></g>
<g><path style="opacity:0.169" fill="#b6b6b6" d="M 532.5,73.5 C 533.906,73.9731 534.573,74.9731 534.5,76.5C 533.094,76.0269 532.427,75.0269 532.5,73.5 Z"/></g>
<g><path style="opacity:0.451" fill="#aaaaaa" d="M 665.5,72.5 C 668.401,78.5273 670.734,84.8607 672.5,91.5C 671.883,91.3893 671.383,91.056 671,90.5C 668.851,84.555 667.017,78.555 665.5,72.5 Z"/></g>
<g><path style="opacity:0.478" fill="#9c9c9c" d="M 259.5,75.5 C 258.527,78.135 256.86,80.135 254.5,81.5C 255.443,78.8908 257.11,76.8908 259.5,75.5 Z"/></g>
<g><path style="opacity:0.027" fill="#cbcbcb" d="M 282.5,75.5 C 282.573,77.0269 281.906,78.0269 280.5,78.5C 280.427,76.9731 281.094,75.9731 282.5,75.5 Z"/></g>
<g><path style="opacity:0.365" fill="#bbbbbb" d="M 568.5,74.5 C 569.871,76.936 570.871,79.6027 571.5,82.5C 569.345,80.3826 568.345,77.716 568.5,74.5 Z"/></g>
<g><path style="opacity:0.29" fill="#c9c9c9" d="M 598.5,74.5 C 598.472,77.9164 597.472,80.9164 595.5,83.5C 595.928,80.2154 596.928,77.2154 598.5,74.5 Z"/></g>
<g><path style="opacity:0.145" fill="#bababa" d="M 534.5,76.5 C 535.906,76.9731 536.573,77.9731 536.5,79.5C 535.094,79.0269 534.427,78.0269 534.5,76.5 Z"/></g>
<g><path style="opacity:0.161" fill="#c4c4c4" d="M 548.5,73.5 C 550.601,76.7966 551.935,80.4632 552.5,84.5C 550.399,81.2034 549.065,77.5368 548.5,73.5 Z"/></g>
<g><path style="opacity:0.612" fill="#a3a3a3" d="M 428.5,76.5 C 428.408,78.8477 427.408,80.5144 425.5,81.5C 425.75,79.326 426.75,77.6594 428.5,76.5 Z"/></g>
<g><path style="opacity:0.153" fill="#c0c0c0" d="M 618.5,74.5 C 618.267,77.5418 617.267,80.2084 615.5,82.5C 615.603,79.3642 616.603,76.6975 618.5,74.5 Z"/></g>
<g><path style="opacity:0.027" fill="#c3c3c3" d="M 277.5,81.5 C 277.573,83.0269 276.906,84.0269 275.5,84.5C 275.427,82.9731 276.094,81.9731 277.5,81.5 Z"/></g>
<g><path style="opacity:0.341" fill="#acacac" d="M 254.5,81.5 C 253.581,84.0892 251.914,86.0892 249.5,87.5C 250.419,84.9108 252.086,82.9108 254.5,81.5 Z"/></g>
<g><path style="opacity:0.576" fill="#a6a6a6" d="M 425.5,81.5 C 425.834,84.491 424.834,86.8243 422.5,88.5C 422.935,85.8427 423.935,83.5093 425.5,81.5 Z"/></g>
<g><path style="opacity:0.267" fill="#bababa" d="M 644.5,79.5 C 643.607,84.5166 641.94,89.1832 639.5,93.5C 640.398,88.466 642.065,83.7994 644.5,79.5 Z"/></g>
<g><path style="opacity:0.42" fill="#bdbdbd" d="M 571.5,83.5 C 573.4,86.5178 574.733,89.8512 575.5,93.5C 573.103,90.691 571.77,87.3576 571.5,83.5 Z"/></g>
<g><path style="opacity:0.329" fill="#bababa" d="M 595.5,83.5 C 595.741,85.8984 595.074,87.8984 593.5,89.5C 593.595,87.2143 594.262,85.2143 595.5,83.5 Z"/></g>
<g><path style="opacity:0.459" fill="#b1b1b1" d="M 354.5,87.5 C 357.903,89.8998 360.57,92.8998 362.5,96.5C 359.097,94.1002 356.43,91.1002 354.5,87.5 Z"/></g>
<g><path style="opacity:0.298" fill="#b2b2b2" d="M 249.5,87.5 C 248.581,90.0892 246.914,92.0892 244.5,93.5C 245.419,90.9108 247.086,88.9108 249.5,87.5 Z"/></g>
<g><path style="opacity:0.145" fill="#b3b3b3" d="M 553.5,87.5 C 554.931,88.7804 555.598,90.4471 555.5,92.5C 554.069,91.2196 553.402,89.5529 553.5,87.5 Z"/></g>
<g><path style="opacity:0.573" fill="#a6a6a6" d="M 614.5,85.5 C 612.405,93.1261 609.738,100.459 606.5,107.5C 608.096,101.875 609.596,96.2085 611,90.5C 611.697,88.4156 612.864,86.7489 614.5,85.5 Z"/></g>
<g><path style="opacity:0.204" fill="#b0b0b0" d="M 441.5,90.5 C 441.204,92.403 440.537,94.0697 439.5,95.5C 439.12,93.302 439.787,91.6354 441.5,90.5 Z"/></g>
<g><path style="opacity:0.318" fill="#b1b1b1" d="M 672.5,91.5 C 674.072,94.2154 675.072,97.2154 675.5,100.5C 673.528,97.9164 672.528,94.9164 672.5,91.5 Z"/></g>
<g><path style="opacity:0.165" fill="#b1b1b1" d="M 422.5,89.5 C 422.59,92.1522 421.924,94.4855 420.5,96.5C 420.41,93.8478 421.076,91.5145 422.5,89.5 Z"/></g>
<g><path style="opacity:0.318" fill="#b6b6b6" d="M 244.5,93.5 C 243.243,96.4274 241.243,98.7607 238.5,100.5C 239.757,97.5726 241.757,95.2393 244.5,93.5 Z"/></g>
<g><path style="opacity:0.154" fill="#acacac" d="M 388.5,47.5 C 388.5,47.1667 388.5,46.8333 388.5,46.5C 394.5,46.5 400.5,46.5 406.5,46.5C 406.833,87.8387 406.5,129.172 405.5,170.5C 403.389,169.395 402.055,167.729 401.5,165.5C 402.794,166.29 403.961,167.29 405,168.5C 405.5,128.168 405.667,87.8347 405.5,47.5C 399.833,47.5 394.167,47.5 388.5,47.5 Z"/></g>
<g><path style="opacity:0.349" fill="#bcbcbc" d="M 593.5,89.5 C 592.585,95.3135 590.585,100.647 587.5,105.5C 588.929,99.8706 590.929,94.5372 593.5,89.5 Z"/></g>
<g><path style="opacity:0.188" fill="#d1d1d1" d="M 340.5,99.5 C 341.833,99.5 342.5,100.167 342.5,101.5C 341.5,101.167 340.833,100.5 340.5,99.5 Z"/></g>
<g><path style="opacity:0.353" fill="#b5b5b5" d="M 364.5,98.5 C 368.234,101.231 371.234,104.564 373.5,108.5C 369.766,105.769 366.766,102.436 364.5,98.5 Z"/></g>
<g><path style="opacity:0.269" fill="#efbcb7" d="M 203.5,104.5 C 203.5,103.5 203.5,102.5 203.5,101.5C 180.167,101.5 156.833,101.5 133.5,101.5C 135.895,100.234 138.562,99.5676 141.5,99.5C 160.524,100.757 179.357,100.757 198,99.5C 199.894,99.5798 201.727,99.9131 203.5,100.5C 204.782,101.958 204.782,103.292 203.5,104.5 Z"/></g>
<g><path style="opacity:0.744" fill="#cc6a60" d="M 133.5,101.5 C 156.833,101.5 180.167,101.5 203.5,101.5C 203.5,102.5 203.5,103.5 203.5,104.5C 203.167,104.5 202.833,104.5 202.5,104.5C 202.5,103.167 201.833,102.5 200.5,102.5C 178.092,102.178 155.758,102.511 133.5,103.5C 133.5,102.833 133.5,102.167 133.5,101.5 Z"/></g>
<g><path style="opacity:0.255" fill="#afafaf" d="M 342.5,101.5 C 344.5,101.5 345.5,102.5 345.5,104.5C 344.167,103.833 343.167,102.833 342.5,101.5 Z"/></g>
<g><path style="opacity:0.231" fill="#b6b6b6" d="M 639.5,93.5 C 638.921,98.6381 637.254,103.305 634.5,107.5C 635.398,102.466 637.065,97.7994 639.5,93.5 Z"/></g>
<g><path style="opacity:0.987" fill="#cf4b3f" d="M 200.5,102.5 C 200.5,102.833 200.5,103.167 200.5,103.5C 178.66,103.169 156.994,103.503 135.5,104.5C 134.272,105.306 133.272,106.306 132.5,107.5C 132.5,106.833 132.5,106.167 132.5,105.5C 132.328,104.508 132.662,103.842 133.5,103.5C 155.758,102.511 178.092,102.178 200.5,102.5 Z"/></g>
<g><path style="opacity:0.888" fill="#909090" d="M 575.5,94.5 C 576.871,96.936 577.871,99.6027 578.5,102.5C 578.5,103.167 578.5,103.833 578.5,104.5C 577.307,104.03 576.64,103.03 576.5,101.5C 576.003,99.1817 575.67,96.8484 575.5,94.5 Z"/></g>
<g><path style="opacity:0.063" fill="#fbd7cf" d="M 133.5,101.5 C 133.5,102.167 133.5,102.833 133.5,103.5C 132.662,103.842 132.328,104.508 132.5,105.5C 131.833,105.833 131.167,106.167 130.5,106.5C 130.75,104.326 131.75,102.659 133.5,101.5 Z"/></g>
<g><path style="opacity:1" fill="#e14438" d="M 135.5,104.5 C 156.994,103.503 178.66,103.169 200.5,103.5C 199.099,107.964 197.432,112.297 195.5,116.5C 194.5,116.5 193.5,116.5 192.5,116.5C 194.934,113.147 194.934,109.647 192.5,106C 194.5,105.667 196.5,105.333 198.5,105C 177.503,104.5 156.503,104.333 135.5,104.5 Z"/></g>
<g><path style="opacity:0.333" fill="#a2a2a2" d="M 675.5,100.5 C 676.871,102.936 677.871,105.603 678.5,108.5C 676.345,106.383 675.345,103.716 675.5,100.5 Z"/></g>
<g><path style="opacity:1" fill="#ea4034" d="M 135.5,104.5 C 156.503,104.333 177.503,104.5 198.5,105C 196.5,105.333 194.5,105.667 192.5,106C 194.934,109.647 194.934,113.147 192.5,116.5C 171.164,116.667 149.831,116.5 128.5,116C 129.416,115.626 130.25,115.126 131,114.5C 131.44,112.134 131.94,109.801 132.5,107.5C 133.272,106.306 134.272,105.306 135.5,104.5 Z"/></g>
<g><path style="opacity:0.36" fill="#a4a4a4" d="M 541.5,92.5 C 544.862,102.082 545.196,111.749 542.5,121.5C 542.532,111.817 542.199,102.151 541.5,92.5 Z"/></g>
<g><path style="opacity:0.369" fill="#c8c8c8" d="M 578.5,102.5 C 580.195,105.404 581.528,108.571 582.5,112C 582.836,113.03 583.503,113.53 584.5,113.5C 584.719,114.675 584.386,115.675 583.5,116.5C 581.287,112.738 579.62,108.738 578.5,104.5C 578.5,103.833 578.5,103.167 578.5,102.5 Z"/></g>
<g><path style="opacity:0.31" fill="#b3b3b3" d="M 659.5,109.5 C 658.249,107.618 657.082,105.618 656,103.5C 654.572,107.307 653.072,110.974 651.5,114.5C 652.293,110.12 653.293,105.786 654.5,101.5C 655.675,101.281 656.675,101.614 657.5,102.5C 658.577,104.729 659.244,107.063 659.5,109.5 Z"/></g>
<g><path style="opacity:0.282" fill="#aaaaaa" d="M 420.5,97.5 C 420.5,105.167 420.5,112.833 420.5,120.5C 419.707,116.661 419.04,112.661 418.5,108.5C 419.027,104.669 419.694,101.002 420.5,97.5 Z"/></g>
<g><path style="opacity:0.24" fill="#a0a0a0" d="M 439.5,95.5 C 437.727,102.455 437.394,109.455 438.5,116.5C 437.188,114.257 436.522,111.59 436.5,108.5C 436.667,105.833 436.833,103.167 437,100.5C 437.099,98.3474 437.933,96.6808 439.5,95.5 Z"/></g>
<g><path style="opacity:0.192" fill="#a6a6a6" d="M 524.5,97.5 C 526.428,102.767 526.761,108.1 525.5,113.5C 525.313,108.155 524.98,102.822 524.5,97.5 Z"/></g>
<g><path style="opacity:0.295" fill="#adadad" d="M 81.5,65.5 C 92.5,65.5 103.5,65.5 114.5,65.5C 103.679,66.4946 92.6794,66.8279 81.5,66.5C 81.1991,99.0133 81.5324,131.513 82.5,164C 82.3857,167.412 81.7191,170.579 80.5,173.5C 80.1682,137.329 80.5016,101.329 81.5,65.5 Z"/></g>
<g><path style="opacity:0.482" fill="#b0b0b0" d="M 373.5,108.5 C 376.833,111.167 379.833,114.167 382.5,117.5C 382.5,117.833 382.5,118.167 382.5,118.5C 378.766,115.769 375.766,112.436 373.5,108.5 Z"/></g>
<g><path style="opacity:0.263" fill="#d3d3d3" d="M 587.5,105.5 C 587.585,108.649 586.585,111.316 584.5,113.5C 584.733,110.458 585.733,107.792 587.5,105.5 Z"/></g>
<g><path style="opacity:0.239" fill="#b3b3b3" d="M 606.5,107.5 C 606.405,109.786 605.738,111.786 604.5,113.5C 604.259,111.102 604.926,109.102 606.5,107.5 Z"/></g>
<g><path style="opacity:0.416" fill="#ababab" d="M 634.5,107.5 C 634.655,110.716 633.655,113.383 631.5,115.5C 632.129,112.603 633.129,109.936 634.5,107.5 Z"/></g>
<g><path style="opacity:0.188" fill="#b9b9b9" d="M 351.5,111.5 C 353.5,111.5 354.5,112.5 354.5,114.5C 353.167,113.833 352.167,112.833 351.5,111.5 Z"/></g>
<g><path style="opacity:0.787" fill="#858585" d="M 268.5,106.5 C 270.588,108.336 271.921,110.669 272.5,113.5C 272.427,115.027 273.094,116.027 274.5,116.5C 275.89,117.899 276.89,119.566 277.5,121.5C 272.473,117.797 269.473,112.797 268.5,106.5 Z"/></g>
<g><path style="opacity:0.153" fill="#b8b8b8" d="M 272.5,113.5 C 273.906,113.973 274.573,114.973 274.5,116.5C 273.094,116.027 272.427,115.027 272.5,113.5 Z"/></g>
<g><path style="opacity:0.141" fill="#aeaeae" d="M 659.5,109.5 C 661.267,111.792 662.267,114.458 662.5,117.5C 660.733,115.208 659.733,112.542 659.5,109.5 Z"/></g>
<g><path style="opacity:0.974" fill="#d8483c" d="M 132.5,107.5 C 131.94,109.801 131.44,112.134 131,114.5C 130.25,115.126 129.416,115.626 128.5,116C 149.831,116.5 171.164,116.667 192.5,116.5C 193.5,116.5 194.5,116.5 195.5,116.5C 172.833,117.833 150.167,117.833 127.5,116.5C 127.94,112.748 129.607,109.748 132.5,107.5 Z"/></g>
<g><path style="opacity:0.059" fill="#fad0c7" d="M 202.5,104.5 C 202.833,104.5 203.167,104.5 203.5,104.5C 201.926,109.32 199.593,113.653 196.5,117.5C 198.229,113.042 200.229,108.709 202.5,104.5 Z"/></g>
<g><path style="opacity:0.035" fill="#cacaca" d="M 249.5,115.5 C 249.573,117.027 248.906,118.027 247.5,118.5C 247.427,116.973 248.094,115.973 249.5,115.5 Z"/></g>
<g><path style="opacity:0.255" fill="#acacac" d="M 651.5,114.5 C 650.538,118.395 649.204,122.061 647.5,125.5C 647.677,121.292 649.01,117.626 651.5,114.5 Z"/></g>
<g><path style="opacity:0.637" fill="#c3574c" d="M 200.5,102.5 C 201.833,102.5 202.5,103.167 202.5,104.5C 200.229,108.709 198.229,113.042 196.5,117.5C 196.5,118.167 196.167,118.5 195.5,118.5C 172.49,118.833 149.49,118.5 126.5,117.5C 126.624,116.893 126.957,116.56 127.5,116.5C 150.167,117.833 172.833,117.833 195.5,116.5C 197.432,112.297 199.099,107.964 200.5,103.5C 200.5,103.167 200.5,102.833 200.5,102.5 Z"/></g>
<g><path style="opacity:0.388" fill="#a1a1a1" d="M 680.5,114.5 C 681.871,116.936 682.871,119.603 683.5,122.5C 681.345,120.383 680.345,117.716 680.5,114.5 Z"/></g>
<g><path style="opacity:0.09" fill="#f0ada6" d="M 132.5,105.5 C 132.5,106.167 132.5,106.833 132.5,107.5C 129.607,109.748 127.94,112.748 127.5,116.5C 126.957,116.56 126.624,116.893 126.5,117.5C 149.49,118.5 172.49,118.833 195.5,118.5C 172.339,119.498 149.006,119.831 125.5,119.5C 125.794,114.588 127.461,110.255 130.5,106.5C 131.167,106.167 131.833,105.833 132.5,105.5 Z"/></g>
<g><path style="opacity:0.137" fill="#aeaeae" d="M 560.5,106.5 C 563.251,111.745 565.251,117.412 566.5,123.5C 563.731,118.199 561.731,112.532 560.5,106.5 Z"/></g>
<g><path style="opacity:0.302" fill="#b7b7b7" d="M 631.5,115.5 C 631.139,119.915 629.806,123.915 627.5,127.5C 628.261,123.216 629.595,119.216 631.5,115.5 Z"/></g>
<g><path style="opacity:0.957" fill="#939393" d="M 253.5,116.5 C 255.269,117.421 256.935,118.588 258.5,120C 257.587,121.414 257.587,122.914 258.5,124.5C 256.347,122.206 254.68,119.54 253.5,116.5 Z"/></g>
<g><path style="opacity:0.204" fill="#b9b9b9" d="M 361.5,122.5 C 363.833,122.833 365.167,124.167 365.5,126.5C 363.833,125.5 362.5,124.167 361.5,122.5 Z"/></g>
<g><path style="opacity:0.318" fill="#b4b4b4" d="M 438.5,119.5 C 439.871,121.936 440.871,124.603 441.5,127.5C 439.345,125.383 438.345,122.716 438.5,119.5 Z"/></g>
<g><path style="opacity:0.122" fill="#d3d3d3" d="M 278.5,123.5 C 279.906,123.973 280.573,124.973 280.5,126.5C 279.094,126.027 278.427,125.027 278.5,123.5 Z"/></g>
<g><path style="opacity:0.373" fill="#aeaeae" d="M 683.5,122.5 C 684.871,124.936 685.871,127.603 686.5,130.5C 684.345,128.383 683.345,125.716 683.5,122.5 Z"/></g>
<g><path style="opacity:0.204" fill="#aeaeae" d="M 566.5,123.5 C 568.074,125.102 568.741,127.102 568.5,129.5C 567.262,127.786 566.595,125.786 566.5,123.5 Z"/></g>
<g><path style="opacity:0.286" fill="#afafaf" d="M 604.5,113.5 C 602.071,122.125 599.071,130.458 595.5,138.5C 597.154,129.557 600.154,121.223 604.5,113.5 Z"/></g>
<g><path style="opacity:0.779" fill="#969696" d="M 260.5,128.5 C 261.397,129.598 262.23,129.598 263,128.5C 263.494,130.134 263.66,131.801 263.5,133.5C 262.11,132.101 261.11,130.434 260.5,128.5 Z"/></g>
<g><path style="opacity:0.263" fill="#9d9d9d" d="M 338.5,96.5 C 337.25,96.4226 336.417,95.756 336,94.5C 335.5,120.165 335.333,145.831 335.5,171.5C 329.31,171.823 323.31,171.49 317.5,170.5C 323.167,170.5 328.833,170.5 334.5,170.5C 334.5,144.833 334.5,119.167 334.5,93.5C 336.619,93.4677 337.952,94.4677 338.5,96.5 Z"/></g>
<g><path style="opacity:0.122" fill="#d6d6d6" d="M 282.5,130.5 C 283.906,130.973 284.573,131.973 284.5,133.5C 283.094,133.027 282.427,132.027 282.5,130.5 Z"/></g>
<g><path style="opacity:0.122" fill="#c2c2c2" d="M 422.5,129.5 C 424.293,131.426 425.293,133.759 425.5,136.5C 423.707,134.574 422.707,132.241 422.5,129.5 Z"/></g>
<g><path style="opacity:0.118" fill="#b8b8b8" d="M 520.5,130.5 C 520.573,132.027 519.906,133.027 518.5,133.5C 518.427,131.973 519.094,130.973 520.5,130.5 Z"/></g>
<g><path style="opacity:0.133" fill="#b0b0b0" d="M 542.5,121.5 C 542.208,127.044 540.541,132.044 537.5,136.5C 538.552,131.155 540.219,126.155 542.5,121.5 Z"/></g>
<g><path style="opacity:0.149" fill="#bababa" d="M 568.5,129.5 C 569.931,130.78 570.598,132.447 570.5,134.5C 569.069,133.22 568.402,131.553 568.5,129.5 Z"/></g>
<g><path style="opacity:0.373" fill="#b1b1b1" d="M 627.5,127.5 C 627.585,130.649 626.585,133.316 624.5,135.5C 624.733,132.458 625.733,129.792 627.5,127.5 Z"/></g>
<g><path style="opacity:0.125" fill="#cacaca" d="M 443.5,131.5 C 444.906,131.973 445.573,132.973 445.5,134.5C 444.094,134.027 443.427,133.027 443.5,131.5 Z"/></g>
<g><path style="opacity:0.243" fill="#acacac" d="M 518.5,133.5 C 518.573,135.027 517.906,136.027 516.5,136.5C 516.427,134.973 517.094,133.973 518.5,133.5 Z"/></g>
<g><path style="opacity:0.271" fill="#bcbcbc" d="M 445.5,134.5 C 446.906,134.973 447.573,135.973 447.5,137.5C 446.094,137.027 445.427,136.027 445.5,134.5 Z"/></g>
<g><path style="opacity:0.39" fill="#b4b4b4" d="M 647.5,125.5 C 646.833,128.5 646.167,131.5 645.5,134.5C 652.863,134.831 660.197,134.497 667.5,133.5C 666.423,131.271 665.756,128.937 665.5,126.5C 667.403,129.53 668.737,132.863 669.5,136.5C 660.833,136.5 652.167,136.5 643.5,136.5C 643.677,132.292 645.01,128.626 647.5,125.5 Z"/></g>
<g><path style="opacity:0.688" fill="#9b9b9b" d="M 264.5,135.5 C 266.759,136.344 267.759,138.011 267.5,140.5C 266.11,139.101 265.11,137.434 264.5,135.5 Z"/></g>
<g><path style="opacity:0.318" fill="#ababab" d="M 686.5,131.5 C 688.734,135.522 690.401,139.856 691.5,144.5C 690.883,144.389 690.383,144.056 690,143.5C 688.516,139.553 687.35,135.553 686.5,131.5 Z"/></g>
<g><path style="opacity:0.137" fill="#b8b8b8" d="M 425.5,136.5 C 427.25,137.659 428.25,139.326 428.5,141.5C 426.75,140.341 425.75,138.674 425.5,136.5 Z"/></g>
<g><path style="opacity:0.122" fill="#d1d1d1" d="M 286.5,137.5 C 287.906,137.973 288.573,138.973 288.5,140.5C 287.094,140.027 286.427,139.027 286.5,137.5 Z"/></g>
<g><path style="opacity:0.361" fill="#b2b2b2" d="M 595.5,138.5 C 595.405,140.786 594.738,142.786 593.5,144.5C 593.054,141.99 593.72,139.99 595.5,138.5 Z"/></g>
<g><path style="opacity:0.396" fill="#9b9b9b" d="M 516.5,136.5 C 515.167,139.833 512.833,142.167 509.5,143.5C 511.5,140.833 513.833,138.5 516.5,136.5 Z"/></g>
<g><path style="opacity:0.859" fill="#979797" d="M 449.5,139.5 C 451.54,141.177 453.54,142.844 455.5,144.5C 452.13,144.371 450.13,142.705 449.5,139.5 Z"/></g>
<g><path style="opacity:0.885" fill="#a5a5a5" d="M 288.5,140.5 C 290.083,142.663 291.416,144.996 292.5,147.5C 291.542,147.047 290.708,146.381 290,145.5C 289.667,145.833 289.333,146.167 289,146.5C 288.505,144.527 288.338,142.527 288.5,140.5 Z"/></g>
<g><path style="opacity:0.455" fill="#b6b6b6" d="M 455.5,144.5 C 457.23,145.026 458.564,146.026 459.5,147.5C 457.368,147.446 456.035,146.446 455.5,144.5 Z"/></g>
<g><path style="opacity:0.216" fill="#aaaaaa" d="M 383.5,146.5 C 385.5,146.5 386.5,147.5 386.5,149.5C 385.167,148.833 384.167,147.833 383.5,146.5 Z"/></g>
<g><path style="opacity:0.267" fill="#b6b6b6" d="M 509.5,143.5 C 508.198,145.822 506.198,147.155 503.5,147.5C 505.147,145.674 507.147,144.34 509.5,143.5 Z"/></g>
<g><path style="opacity:0.149" fill="#b1b1b1" d="M 573.5,143.5 C 574.931,144.78 575.598,146.447 575.5,148.5C 574.069,147.22 573.402,145.553 573.5,143.5 Z"/></g>
<g><path style="opacity:0.341" fill="#b1b1b1" d="M 624.5,135.5 C 622.92,143.307 620.254,150.641 616.5,157.5C 618.595,149.874 621.262,142.541 624.5,135.5 Z"/></g>
<g><path style="opacity:0.256" fill="#b7b7b7" d="M 236.5,131.5 C 235.536,144.784 235.203,158.117 235.5,171.5C 229.31,171.823 223.31,171.49 217.5,170.5C 223.167,170.5 228.833,170.5 234.5,170.5C 234.333,157.829 234.5,145.162 235,132.5C 235.383,131.944 235.883,131.611 236.5,131.5 Z"/></g>
<g><path style="opacity:0.18" fill="#c0c0c0" d="M 461.5,148.5 C 469.847,151.768 478.513,153.102 487.5,152.5C 479.845,154.042 472.179,153.542 464.5,151C 463.058,150.623 462.058,149.79 461.5,148.5 Z"/></g>
<g><path style="opacity:0.318" fill="#acacac" d="M 691.5,145.5 C 693.267,147.792 694.267,150.458 694.5,153.5C 692.415,151.316 691.415,148.649 691.5,145.5 Z"/></g>
<g><path style="opacity:0.133" fill="#cacaca" d="M 497.5,150.5 C 494.877,152.265 491.877,152.932 488.5,152.5C 491.273,151.343 494.273,150.676 497.5,150.5 Z"/></g>
<g><path style="opacity:0.341" fill="#b0b0b0" d="M 591.5,149.5 C 590.739,153.784 589.405,157.784 587.5,161.5C 587.47,156.921 588.804,152.921 591.5,149.5 Z"/></g>
<g><path style="opacity:0.161" fill="#c6c6c6" d="M 436.5,152.5 C 438.027,152.427 439.027,153.094 439.5,154.5C 437.973,154.573 436.973,153.906 436.5,152.5 Z"/></g>
<g><path style="opacity:0.247" fill="#939393" d="M 676.5,156.5 C 675.733,155.828 675.066,154.995 674.5,154C 662.833,153.333 651.167,153.333 639.5,154C 638.473,154.513 637.473,155.013 636.5,155.5C 636.414,154.504 636.748,153.671 637.5,153C 650.167,152.333 662.833,152.333 675.5,153C 676.337,154.011 676.67,155.178 676.5,156.5 Z"/></g>
<g><path style="opacity:0.106" fill="#d8d8d8" d="M 294.5,151.5 C 295.906,151.973 296.573,152.973 296.5,154.5C 295.094,154.027 294.427,153.027 294.5,151.5 Z"/></g>
<g><path style="opacity:0.559" fill="#90c5e2" d="M 202.5,159.5 C 202.5,158.167 202.5,156.833 202.5,155.5C 179.5,155.5 156.5,155.5 133.5,155.5C 133.371,157.216 133.038,158.883 132.5,160.5C 132.167,160.5 131.833,160.5 131.5,160.5C 131.167,160.5 130.833,160.5 130.5,160.5C 130.948,157.767 132.281,155.601 134.5,154C 156.5,153.333 178.5,153.333 200.5,154C 204.723,154.836 205.389,156.669 202.5,159.5 Z"/></g>
<g><path style="opacity:0.2" fill="#ababab" d="M 576.5,151.5 C 578.074,153.102 578.741,155.102 578.5,157.5C 577.262,155.786 576.595,153.786 576.5,151.5 Z"/></g>
<g><path style="opacity:0.978" fill="#1e73b9" d="M 202.5,159.5 C 201.5,160.833 200.5,162.167 199.5,163.5C 199.5,161.167 199.5,158.833 199.5,156.5C 178.497,156.333 157.497,156.5 136.5,157C 135.295,158.376 133.962,159.542 132.5,160.5C 133.038,158.883 133.371,157.216 133.5,155.5C 156.5,155.5 179.5,155.5 202.5,155.5C 202.5,156.833 202.5,158.167 202.5,159.5 Z"/></g>
<g><path style="opacity:0.373" fill="#b1b1b1" d="M 275.5,155.5 C 277.048,155.821 277.715,156.821 277.5,158.5C 276.599,157.71 275.932,156.71 275.5,155.5 Z"/></g>
<g><path style="opacity:0.435" fill="#a9a9a9" d="M 694.5,153.5 C 695.871,155.936 696.871,158.603 697.5,161.5C 695.345,159.383 694.345,156.716 694.5,153.5 Z"/></g>
<g><path style="opacity:1" fill="#0776d3" d="M 199.5,163.5 C 196.887,164.733 195.221,166.733 194.5,169.5C 173.006,170.497 151.34,170.831 129.5,170.5C 130.167,167.833 130.833,165.167 131.5,162.5C 131.5,161.833 131.5,161.167 131.5,160.5C 131.833,160.5 132.167,160.5 132.5,160.5C 133.962,159.542 135.295,158.376 136.5,157C 157.497,156.5 178.497,156.333 199.5,156.5C 199.5,158.833 199.5,161.167 199.5,163.5 Z"/></g>
<g><path style="opacity:1" fill="#0177dd" d="M 194.5,169.5 C 173.489,169.833 152.489,169.5 131.5,168.5C 132.728,165.254 134.394,162.254 136.5,159.5C 156.158,158.334 175.825,158.167 195.5,159C 195.957,159.414 196.291,159.914 196.5,160.5C 195.092,161.243 193.759,162.077 192.5,163C 194.016,164.897 194.683,167.064 194.5,169.5 Z"/></g>
<g><path style="opacity:0.216" fill="#a4a4a4" d="M 636.5,155.5 C 636.072,158.785 635.072,161.785 633.5,164.5C 633.528,161.084 634.528,158.084 636.5,155.5 Z"/></g>
<g><path style="opacity:0.2" fill="#b1b1b1" d="M 578.5,157.5 C 580.105,160.12 581.438,162.953 582.5,166C 583.865,165.857 585.198,165.357 586.5,164.5C 586.251,166.936 585.251,168.936 583.5,170.5C 580.852,166.557 579.185,162.223 578.5,157.5 Z"/></g>
<g><path style="opacity:0.094" fill="#c6e8fb" d="M 202.5,159.5 C 202.206,162.754 200.873,165.421 198.5,167.5C 198.833,166.167 199.167,164.833 199.5,163.5C 200.5,162.167 201.5,160.833 202.5,159.5 Z"/></g>
<g><path style="opacity:0.149" fill="#c9c9c9" d="M 299.5,160.5 C 300.906,160.973 301.573,161.973 301.5,163.5C 300.094,163.027 299.427,162.027 299.5,160.5 Z"/></g>
<g><path style="opacity:0.2" fill="#a4a4a4" d="M 676.5,156.5 C 678.921,160.755 680.588,165.421 681.5,170.5C 679.065,166.201 677.398,161.534 676.5,156.5 Z"/></g>
<g><path style="opacity:0.341" fill="#aeaeae" d="M 697.5,161.5 C 698.924,163.515 699.59,165.848 699.5,168.5C 698.076,166.485 697.41,164.152 697.5,161.5 Z"/></g>
<g><path style="opacity:0.176" fill="#a4a4a4" d="M 463.5,168.5 C 466.428,168.565 469.095,169.232 471.5,170.5C 468.505,170.706 465.838,170.04 463.5,168.5 Z"/></g>
<g><path style="opacity:0.958" fill="#2277c2" d="M 131.5,162.5 C 130.833,165.167 130.167,167.833 129.5,170.5C 151.34,170.831 173.006,170.497 194.5,169.5C 195.221,166.733 196.887,164.733 199.5,163.5C 199.167,164.833 198.833,166.167 198.5,167.5C 198.672,168.492 198.338,169.158 197.5,169.5C 196.5,169.833 195.833,170.5 195.5,171.5C 172.833,171.5 150.167,171.5 127.5,171.5C 128.042,168.088 129.375,165.088 131.5,162.5 Z"/></g>
<g><path style="opacity:0.161" fill="#9e9e9e" d="M 301.5,163.5 C 302.933,165.519 304.267,167.686 305.5,170C 305.167,170.333 304.833,170.667 304.5,171C 297.833,171.667 291.167,171.667 284.5,171C 283.748,170.329 283.414,169.496 283.5,168.5C 289.618,170.365 295.952,171.032 302.5,170.5C 302.007,168.194 301.674,165.861 301.5,163.5 Z"/></g>
<g><path style="opacity:0.146" fill="#b4b4b4" d="M 496.5,169.5 C 491.577,170.954 486.411,171.621 481,171.5C 477.648,171.498 474.482,171.165 471.5,170.5C 479.854,170.573 488.188,170.24 496.5,169.5 Z"/></g>
<g><path style="opacity:0.209" fill="#afafaf" d="M 616.5,157.5 C 615.348,161.775 614.348,166.108 613.5,170.5C 619.5,170.5 625.5,170.5 631.5,170.5C 625.021,171.491 618.354,171.824 611.5,171.5C 612.398,166.466 614.065,161.799 616.5,157.5 Z"/></g>
<g><path style="opacity:0.155" fill="#a7a7a7" d="M 699.5,168.5 C 700.404,169.209 700.737,170.209 700.5,171.5C 693.978,171.823 687.645,171.49 681.5,170.5C 687.926,171.12 693.926,170.453 699.5,168.5 Z"/></g>
<g><path style="opacity:0.619" fill="#4d91c7" d="M 130.5,160.5 C 130.833,160.5 131.167,160.5 131.5,160.5C 131.5,161.167 131.5,161.833 131.5,162.5C 129.375,165.088 128.042,168.088 127.5,171.5C 150.167,171.5 172.833,171.5 195.5,171.5C 195.5,171.833 195.5,172.167 195.5,172.5C 195.167,172.5 194.833,172.5 194.5,172.5C 171.833,172.5 149.167,172.5 126.5,172.5C 126.5,171.167 126.5,169.833 126.5,168.5C 127.326,165.515 128.659,162.849 130.5,160.5 Z"/></g>
<g><path style="opacity:0.043" fill="#acd1e7" d="M 197.5,169.5 C 197.573,171.027 196.906,172.027 195.5,172.5C 195.5,172.167 195.5,171.833 195.5,171.5C 195.833,170.5 196.5,169.833 197.5,169.5 Z"/></g>
<g><path style="opacity:0.085" fill="#addbfd" d="M 126.5,168.5 C 126.5,169.833 126.5,171.167 126.5,172.5C 149.167,172.5 171.833,172.5 194.5,172.5C 171.67,173.663 148.67,173.83 125.5,173C 124.447,171.251 124.78,169.751 126.5,168.5 Z"/></g>
<g><path style="opacity:0.027" fill="#c0c0c0" d="M 78.5,175.5 C 78.573,177.027 77.9063,178.027 76.5,178.5C 76.427,176.973 77.0937,175.973 78.5,175.5 Z"/></g>
<g><path style="opacity:0.439" fill="#a4a4a4" d="M 67.5,179.5 C 69.5582,180.933 71.8915,181.6 74.5,181.5C 71.5502,184.195 69.2169,183.529 67.5,179.5 Z"/></g>
</svg>
