<?xml version="1.0" encoding="UTF-8"?>
<!DOCTYPE svg PUBLIC "-//W3C//DTD SVG 1.1//EN" "http://www.w3.org/Graphics/SVG/1.1/DTD/svg11.dtd">
<svg xmlns="http://www.w3.org/2000/svg" version="1.1" width="730px" height="218px" style="shape-rendering:geometricPrecision; text-rendering:geometricPrecision; image-rendering:optimizeQuality; fill-rule:evenodd; clip-rule:evenodd" xmlns:xlink="http://www.w3.org/1999/xlink">
<g><path style="opacity:0.283" fill="#252525" d="M 680.5,35.5 C 677.95,35.5608 676.45,36.8941 676,39.5C 674.724,34.7411 673.557,34.5744 672.5,39C 672.667,40.1667 672.833,41.3333 673,42.5C 673.333,41.8333 673.667,41.1667 674,40.5C 675.668,44.2372 677.001,44.2372 678,40.5C 678.236,42.1193 679.069,43.1193 680.5,43.5C 678.034,44.6341 675.367,44.8007 672.5,44C 671.922,42.583 670.922,41.7496 669.5,41.5C 669.261,39.5328 669.594,37.6995 670.5,36C 668.833,35.3333 667.167,35.3333 665.5,36C 667.25,37.7542 667.917,39.9208 667.5,42.5C 666.73,40.3144 665.73,38.1477 664.5,36C 664.645,35.228 664.978,34.5613 665.5,34C 670.231,34.6506 674.731,34.4839 679,33.5C 679.717,34.0442 680.217,34.7109 680.5,35.5 Z"/></g>
<g><path style="opacity:0.967" fill="#676767" d="M 680.5,35.5 C 681.833,38.1667 681.833,40.8333 680.5,43.5C 679.069,43.1193 678.236,42.1193 678,40.5C 677.001,44.2372 675.668,44.2372 674,40.5C 673.667,41.1667 673.333,41.8333 673,42.5C 672.833,41.3333 672.667,40.1667 672.5,39C 673.557,34.5744 674.724,34.7411 676,39.5C 676.45,36.8941 677.95,35.5608 680.5,35.5 Z"/></g>
<g><path style="opacity:0.384" fill="#717171" d="M 669.5,41.5 C 669.611,42.1174 669.944,42.6174 670.5,43C 669.251,43.7401 668.251,43.5735 667.5,42.5C 667.917,39.9208 667.25,37.7542 665.5,36C 667.167,35.3333 668.833,35.3333 670.5,36C 669.594,37.6995 669.261,39.5328 669.5,41.5 Z"/></g>
<g><path style="opacity:0.189" fill="#656565" d="M 116.5,51.5 C 82.8333,51.5 49.1667,51.5 15.5,51.5C 43.8602,50.8215 72.3602,50.1548 101,49.5C 106.313,50.0979 111.479,50.7646 116.5,51.5 Z"/></g>
<g><path style="opacity:0.311" fill="#574014" d="M 197.5,51.5 C 174.167,51.5 150.833,51.5 127.5,51.5C 132.639,50.4491 137.972,49.7824 143.5,49.5C 155.5,50.8333 167.5,50.8333 179.5,49.5C 185.685,49.8446 191.685,50.5113 197.5,51.5 Z"/></g>
<g><path style="opacity:0.323" fill="#4e4e4e" d="M 298.5,53.5 C 291.576,51.5367 284.243,50.8701 276.5,51.5C 280.054,50.0156 283.888,49.3489 288,49.5C 291.858,49.6792 295.691,50.0125 299.5,50.5C 299.737,51.791 299.404,52.791 298.5,53.5 Z"/></g>
<g><path style="opacity:0.268" fill="#555555" d="M 399.5,51.5 C 393.833,51.5 388.167,51.5 382.5,51.5C 383.946,50.0598 385.779,49.3932 388,49.5C 392.022,49.8918 395.855,50.5585 399.5,51.5 Z"/></g>
<g><path style="opacity:0.165" fill="#4c4c4c" d="M 464.5,51.5 C 467.984,50.8346 471.651,50.5013 475.5,50.5C 480.767,50.2871 485.767,50.9538 490.5,52.5C 481.862,51.6602 473.195,51.3268 464.5,51.5 Z"/></g>
<g><path style="opacity:0.286" fill="#4a4a4a" d="M 621.5,50.5 C 621.5,50.8333 621.5,51.1667 621.5,51.5C 615.167,51.5 608.833,51.5 602.5,51.5C 602.918,50.7784 603.584,50.2784 604.5,50C 610.218,49.2599 615.885,49.4265 621.5,50.5 Z"/></g>
<g><path style="opacity:0.794" fill="#dadad9" d="M 15.5,51.5 C 49.1667,51.5 82.8333,51.5 116.5,51.5C 116.008,53.8185 115.008,55.8185 113.5,57.5C 113.579,56.0695 113.246,54.7362 112.5,53.5C 96.5,53.1667 80.5,52.8333 64.5,52.5C 48.1524,52.5005 32.1524,53.1672 16.5,54.5C 15.596,53.791 15.2627,52.791 15.5,51.5 Z"/></g>
<g><path style="opacity:0.776" fill="#caa338" d="M 127.5,51.5 C 150.833,51.5 174.167,51.5 197.5,51.5C 198.833,52.5 198.833,53.5 197.5,54.5C 196.272,55.3065 195.272,56.3065 194.5,57.5C 194.5,55.8333 194.5,54.1667 194.5,52.5C 172.167,52.5 149.833,52.5 127.5,52.5C 127.715,54.1788 127.048,55.1788 125.5,55.5C 125.66,53.847 126.326,52.5137 127.5,51.5 Z"/></g>
<g><path style="opacity:0.039" fill="#2d2d2d" d="M 621.5,50.5 C 622.598,51.6009 622.765,52.9343 622,54.5C 620.491,60.2144 618.325,65.5478 615.5,70.5C 617.175,64.1284 619.175,57.795 621.5,51.5C 621.5,51.1667 621.5,50.8333 621.5,50.5 Z"/></g>
<g><path style="opacity:0.998" fill="#f8f8f9" d="M 113.5,57.5 C 112.167,60.8333 110.833,64.1667 109.5,67.5C 98.0682,68.1467 86.7348,68.8133 75.5,69.5C 75.5,104.167 75.5,138.833 75.5,173.5C 75.8799,175.698 75.2132,177.365 73.5,178.5C 72.0937,178.973 71.427,179.973 71.5,181.5C 70.1667,182.167 69.1667,183.167 68.5,184.5C 66.7839,184.629 65.1172,184.962 63.5,185.5C 62.5,185.167 61.8333,184.5 61.5,183.5C 60.8645,181.205 59.5311,179.539 57.5,178.5C 56.6618,178.158 56.3284,177.492 56.5,176.5C 56.5,140.833 56.5,105.167 56.5,69.5C 46.5,69.5 36.5,69.5 26.5,69.5C 25.5,69.1667 24.8333,68.5 24.5,67.5C 24.573,65.9731 23.9063,64.9731 22.5,64.5C 21.6618,64.1583 21.3284,63.4916 21.5,62.5C 20.6597,60.1475 19.3264,58.1475 17.5,56.5C 16.6618,56.1583 16.3284,55.4916 16.5,54.5C 32.1524,53.1672 48.1524,52.5005 64.5,52.5C 80.5,52.8333 96.5,53.1667 112.5,53.5C 113.246,54.7362 113.579,56.0695 113.5,57.5 Z"/></g>
<g><path style="opacity:1" fill="#ecbb2a" d="M 194.5,57.5 C 194.008,59.8185 193.008,61.8185 191.5,63.5C 189.896,64.287 189.229,65.6203 189.5,67.5C 186.833,67.5 184.167,67.5 181.5,67.5C 183.265,66.5386 185.265,66.2053 187.5,66.5C 187.351,65.448 187.517,64.448 188,63.5C 190.943,60.7369 192.776,57.4035 193.5,53.5C 171.833,53.5 150.167,53.5 128.5,53.5C 128.66,55.1992 128.494,56.8659 128,58.5C 127.329,59.2524 126.496,59.5858 125.5,59.5C 125.5,58.8333 125.5,58.1667 125.5,57.5C 125.5,56.8333 125.5,56.1667 125.5,55.5C 127.048,55.1788 127.715,54.1788 127.5,52.5C 149.833,52.5 172.167,52.5 194.5,52.5C 194.5,54.1667 194.5,55.8333 194.5,57.5 Z"/></g>
<g><path style="opacity:0.996" fill="#f8f8f8" d="M 211.5,51.5 C 217.167,51.5 222.833,51.5 228.5,51.5C 228.167,70.5117 228.5,89.5117 229.5,108.5C 234.422,102.956 239.089,97.2892 243.5,91.5C 245.587,90.4154 246.92,88.7488 247.5,86.5C 249.914,85.0892 251.581,83.0892 252.5,80.5C 254.587,79.4154 255.92,77.7488 256.5,75.5C 259.243,73.7607 261.243,71.4274 262.5,68.5C 264.262,67.7377 265.262,66.4044 265.5,64.5C 268.243,62.7607 270.243,60.4274 271.5,57.5C 273.914,56.0892 275.581,54.0892 276.5,51.5C 284.243,50.8701 291.576,51.5367 298.5,53.5C 295.129,56.8706 292.129,60.5373 289.5,64.5C 289.5,65.1667 289.167,65.5 288.5,65.5C 286.413,66.5846 285.08,68.2512 284.5,70.5C 284.167,71.5 283.5,72.1667 282.5,72.5C 281.094,72.9731 280.427,73.9731 280.5,75.5C 279.136,77.1911 277.803,78.8577 276.5,80.5C 275.167,80.5 273.833,80.5 272.5,80.5C 272.483,82.5648 272.15,84.5648 271.5,86.5C 270.833,87.8333 269.833,88.8333 268.5,89.5C 266.738,90.2623 265.738,91.5956 265.5,93.5C 263.248,96.3385 261.248,99.3385 259.5,102.5C 261.252,107 263.252,111.334 265.5,115.5C 265.427,117.027 266.094,118.027 267.5,118.5C 268.674,119.514 269.34,120.847 269.5,122.5C 269.427,124.027 270.094,125.027 271.5,125.5C 272.674,126.514 273.34,127.847 273.5,129.5C 273.427,131.027 274.094,132.027 275.5,132.5C 276.338,132.842 276.672,133.508 276.5,134.5C 276.427,136.027 277.094,137.027 278.5,137.5C 279.674,138.514 280.34,139.847 280.5,141.5C 280.427,143.027 281.094,144.027 282.5,144.5C 283.338,144.842 283.672,145.508 283.5,146.5C 283.427,148.027 284.094,149.027 285.5,149.5C 285.157,151.483 285.824,152.817 287.5,153.5C 287.427,155.027 288.094,156.027 289.5,156.5C 289.157,158.483 289.824,159.817 291.5,160.5C 291.427,162.027 292.094,163.027 293.5,163.5C 293.157,165.483 293.824,166.817 295.5,167.5C 296.338,167.842 296.672,168.508 296.5,169.5C 297.038,171.117 297.371,172.784 297.5,174.5C 290.776,174.756 284.109,174.423 277.5,173.5C 277.5,173.167 277.5,172.833 277.5,172.5C 277.759,170.011 276.759,168.344 274.5,167.5C 274.573,165.973 273.906,164.973 272.5,164.5C 268.997,159.498 265.997,154.165 263.5,148.5C 263.426,145.341 262.093,143.008 259.5,141.5C 259.573,139.973 258.906,138.973 257.5,138.5C 255.992,136.819 254.992,134.819 254.5,132.5C 254.573,130.973 253.906,129.973 252.5,129.5C 251.326,128.486 250.66,127.153 250.5,125.5C 250.573,123.973 249.906,122.973 248.5,122.5C 247.662,122.158 247.328,121.492 247.5,120.5C 246.756,117.116 245.423,116.782 243.5,119.5C 240.871,123.463 237.871,127.129 234.5,130.5C 233.292,131.234 231.959,131.567 230.5,131.5C 230.769,133.429 230.269,135.095 229,136.5C 228.5,149.162 228.333,161.829 228.5,174.5C 222.833,174.5 217.167,174.5 211.5,174.5C 211.5,133.5 211.5,92.5 211.5,51.5 Z"/></g>
<g><path style="opacity:0.999" fill="#fbfbfb" d="M 312.5,51.5 C 314.766,55.4356 317.766,58.7689 321.5,61.5C 323.094,64.7642 325.427,67.4309 328.5,69.5C 329.5,69.8333 330.167,70.5 330.5,71.5C 332.094,74.7642 334.427,77.4309 337.5,79.5C 340.77,84.4397 344.77,88.7731 349.5,92.5C 353.105,97.774 357.438,102.441 362.5,106.5C 364.094,109.764 366.427,112.431 369.5,114.5C 373.066,119.573 377.232,124.24 382,128.5C 382.5,102.835 382.667,77.1688 382.5,51.5C 388.167,51.5 393.833,51.5 399.5,51.5C 399.833,91.5056 399.5,131.506 398.5,171.5C 397.583,170.873 396.583,170.539 395.5,170.5C 393.913,167.732 392.08,165.065 390,162.5C 389.329,161.748 388.496,161.414 387.5,161.5C 387.167,159.167 385.833,157.833 383.5,157.5C 381.833,155.5 380.167,153.5 378.5,151.5C 378.5,149.5 377.5,148.5 375.5,148.5C 375.167,146.167 373.833,144.833 371.5,144.5C 370.833,143.5 370.167,142.5 369.5,141.5C 369.5,139.5 368.5,138.5 366.5,138.5C 364.854,135.19 362.52,132.523 359.5,130.5C 357.833,129.5 356.5,128.167 355.5,126.5C 354.243,123.573 352.243,121.239 349.5,119.5C 349.512,116.858 348.179,115.525 345.5,115.5C 344.243,112.573 342.243,110.239 339.5,108.5C 339.5,106.5 338.5,105.5 336.5,105.5C 336.167,102.5 334.5,100.833 331.5,100.5C 331.167,99.8333 330.833,99.1667 330.5,98.5C 330.44,97.9569 330.107,97.6236 329.5,97.5C 328.5,123.158 328.167,148.825 328.5,174.5C 322.833,174.5 317.167,174.5 311.5,174.5C 311.168,133.33 311.501,92.3299 312.5,51.5 Z"/></g>
<g><path style="opacity:0.396" fill="#4b4b4b" d="M 312.5,51.5 C 316.234,54.2311 319.234,57.5644 321.5,61.5C 317.766,58.7689 314.766,55.4356 312.5,51.5 Z"/></g>
<g><path style="opacity:0.998" fill="#f7f7f7" d="M 463.5,51.5 C 463.833,51.5 464.167,51.5 464.5,51.5C 473.195,51.3268 481.862,51.6602 490.5,52.5C 490.833,52.5 491.167,52.5 491.5,52.5C 493.102,54.0739 495.102,54.7406 497.5,54.5C 499.033,56.2451 501.033,57.2451 503.5,57.5C 504.492,57.3284 505.158,57.6618 505.5,58.5C 505.586,59.4959 505.252,60.3292 504.5,61C 506.387,60.5771 508.387,60.7437 510.5,61.5C 510.833,61.5 511.167,61.5 511.5,61.5C 511.525,64.179 512.858,65.5123 515.5,65.5C 515.833,65.5 516.167,65.5 516.5,65.5C 517.757,68.4274 519.757,70.7607 522.5,72.5C 523.08,74.7488 524.413,76.4154 526.5,77.5C 526.427,79.0269 527.094,80.0269 528.5,80.5C 528.427,82.0269 529.094,83.0269 530.5,83.5C 531.674,84.5137 532.34,85.847 532.5,87.5C 533.79,93.033 535.457,98.3664 537.5,103.5C 538.807,109.932 538.807,116.266 537.5,122.5C 536.132,126.298 535.132,130.298 534.5,134.5C 531.503,139.825 528.503,145.159 525.5,150.5C 525.5,151.167 525.167,151.5 524.5,151.5C 523.094,151.973 522.427,152.973 522.5,154.5C 517.364,160.306 511.364,164.973 504.5,168.5C 501.759,168.707 499.426,169.707 497.5,171.5C 493.053,171.825 488.72,172.658 484.5,174C 477.842,174.5 471.175,174.666 464.5,174.5C 464.167,174.5 463.833,174.5 463.5,174.5C 458.03,172.12 452.363,170.12 446.5,168.5C 446.027,167.094 445.027,166.427 443.5,166.5C 443.027,165.094 442.027,164.427 440.5,164.5C 440.027,163.094 439.027,162.427 437.5,162.5C 435.431,159.427 432.764,157.094 429.5,155.5C 428.527,152.865 426.86,150.865 424.5,149.5C 424.573,147.973 423.906,146.973 422.5,146.5C 421.662,146.158 421.328,145.492 421.5,144.5C 420.674,141.515 419.341,138.849 417.5,136.5C 416.787,132.313 415.787,128.313 414.5,124.5C 413.669,117.869 413.336,111.202 413.5,104.5C 413.5,104.167 413.5,103.833 413.5,103.5C 415.04,101.162 415.706,98.4951 415.5,95.5C 417.915,92.6601 419.248,89.3267 419.5,85.5C 421.446,84.9653 422.446,83.632 422.5,81.5C 424.193,78.8159 425.86,76.1492 427.5,73.5C 431.859,69.4718 436.193,65.4718 440.5,61.5C 442.027,61.573 443.027,60.9063 443.5,59.5C 450.234,56.7924 456.901,54.1257 463.5,51.5 Z M 494.5,73.5 C 494.842,74.3382 495.508,74.6716 496.5,74.5C 496.973,75.9063 497.973,76.573 499.5,76.5C 499.973,77.9063 500.973,78.573 502.5,78.5C 504.833,81.5 507.5,84.1667 510.5,86.5C 510.427,88.0269 511.094,89.0269 512.5,89.5C 519.648,103.865 520.314,118.531 514.5,133.5C 511.591,136.981 508.925,140.648 506.5,144.5C 503.545,146.122 500.878,148.122 498.5,150.5C 484.796,157.554 470.796,158.221 456.5,152.5C 455.395,151.4 454.062,150.733 452.5,150.5C 452.027,149.094 451.027,148.427 449.5,148.5C 446.5,144.833 443.167,141.5 439.5,138.5C 439.573,136.973 438.906,135.973 437.5,135.5C 437.34,133.847 436.674,132.514 435.5,131.5C 435.204,129.597 434.537,127.93 433.5,126.5C 433.5,126.167 433.5,125.833 433.5,125.5C 432.669,118.869 432.336,112.202 432.5,105.5C 433.341,103.621 433.675,101.621 433.5,99.5C 435.07,96.6865 436.403,93.6865 437.5,90.5C 438.974,89.5637 439.974,88.2303 440.5,86.5C 441.5,86.1667 442.167,85.5 442.5,84.5C 444.5,83.1667 446.167,81.5 447.5,79.5C 449.389,78.396 451.055,77.0627 452.5,75.5C 455.686,74.4031 458.686,73.0697 461.5,71.5C 472.717,68.6106 483.717,69.2772 494.5,73.5 Z"/></g>
<g><path style="opacity:0.998" fill="#f9f9f9" d="M 552.5,51.5 C 553.338,51.8417 553.672,52.5084 553.5,53.5C 554.684,58.5543 556.184,63.5543 558,68.5C 558.383,69.056 558.883,69.3893 559.5,69.5C 559.5,69.8333 559.5,70.1667 559.5,70.5C 559.804,73.5219 560.304,76.5219 561,79.5C 561.708,80.3805 562.542,81.0472 563.5,81.5C 563.5,81.8333 563.5,82.1667 563.5,82.5C 563.166,85.491 564.166,87.8243 566.5,89.5C 566.5,89.8333 566.5,90.1667 566.5,90.5C 567.025,94.533 568.358,98.1996 570.5,101.5C 570.77,105.358 572.103,108.691 574.5,111.5C 574.5,111.833 574.5,112.167 574.5,112.5C 574.387,115.049 575.054,117.382 576.5,119.5C 577.274,120.711 578.107,120.711 579,119.5C 582.145,110.567 584.978,101.567 587.5,92.5C 593.308,79.1997 598.308,65.5331 602.5,51.5C 608.833,51.5 615.167,51.5 621.5,51.5C 619.175,57.795 617.175,64.1284 615.5,70.5C 615.737,71.791 615.404,72.791 614.5,73.5C 612.415,75.6845 611.415,78.3511 611.5,81.5C 611.737,82.791 611.404,83.791 610.5,84.5C 608.345,86.6174 607.345,89.284 607.5,92.5C 605.72,93.9899 605.054,95.9899 605.5,98.5C 605.737,99.791 605.404,100.791 604.5,101.5C 602.787,102.635 602.12,104.302 602.5,106.5C 600.926,108.102 600.259,110.102 600.5,112.5C 600.204,114.403 599.537,116.07 598.5,117.5C 596.72,118.99 596.054,120.99 596.5,123.5C 594.72,124.99 594.054,126.99 594.5,129.5C 594.672,130.492 594.338,131.158 593.5,131.5C 591.926,133.102 591.259,135.102 591.5,137.5C 589.01,140.626 587.677,144.292 587.5,148.5C 584.804,151.921 583.47,155.921 583.5,160.5C 583.672,161.492 583.338,162.158 582.5,162.5C 580.474,165.529 578.807,168.862 577.5,172.5C 576.525,169.848 575.192,167.514 573.5,165.5C 572.74,160.428 571.073,155.761 568.5,151.5C 557.37,118.109 546.036,84.7761 534.5,51.5C 540.5,51.5 546.5,51.5 552.5,51.5 Z"/></g>
<g><path style="opacity:0.157" fill="#585858" d="M 491.5,52.5 C 493.786,52.595 495.786,53.2616 497.5,54.5C 495.102,54.7406 493.102,54.0739 491.5,52.5 Z"/></g>
<g><path style="opacity:0.055" fill="#1c1c1d" d="M 116.5,51.5 C 117.148,52.9794 117.481,54.4794 117.5,56C 114.688,59.8124 112.021,63.6457 109.5,67.5C 110.833,64.1667 112.167,60.8333 113.5,57.5C 115.008,55.8185 116.008,53.8185 116.5,51.5 Z"/></g>
<g><path style="opacity:1" fill="#f9bd0b" d="M 181.5,67.5 C 161.833,67.5 142.167,67.5 122.5,67.5C 122.018,64.1694 123.018,61.5027 125.5,59.5C 126.496,59.5858 127.329,59.2524 128,58.5C 128.494,56.8659 128.66,55.1992 128.5,53.5C 150.167,53.5 171.833,53.5 193.5,53.5C 192.776,57.4035 190.943,60.7369 188,63.5C 187.517,64.448 187.351,65.448 187.5,66.5C 185.265,66.2053 183.265,66.5386 181.5,67.5 Z"/></g>
<g><path style="opacity:0.263" fill="#767676" d="M 276.5,51.5 C 275.581,54.0892 273.914,56.0892 271.5,57.5C 272.419,54.9108 274.086,52.9108 276.5,51.5 Z"/></g>
<g><path style="opacity:0.188" fill="#5e5e5e" d="M 497.5,54.5 C 499.967,54.7549 501.967,55.7549 503.5,57.5C 501.033,57.2451 499.033,56.2451 497.5,54.5 Z"/></g>
<g><path style="opacity:0.998" fill="#fafafa" d="M 651.5,52.5 C 651.557,53.609 651.89,54.609 652.5,55.5C 652.259,57.8984 652.926,59.8984 654.5,61.5C 655.684,66.5543 657.184,71.5543 659,76.5C 659.383,77.056 659.883,77.3893 660.5,77.5C 660.5,77.8333 660.5,78.1667 660.5,78.5C 660.804,81.5219 661.304,84.5219 662,87.5C 662.383,88.056 662.883,88.3893 663.5,88.5C 664.083,91.9466 665.416,94.9466 667.5,97.5C 667.5,97.8333 667.5,98.1667 667.5,98.5C 667.77,102.358 669.103,105.691 671.5,108.5C 671.5,108.833 671.5,109.167 671.5,109.5C 674.01,120.04 677.677,130.04 682.5,139.5C 682.345,142.716 683.345,145.383 685.5,147.5C 685.5,147.833 685.5,148.167 685.5,148.5C 685.677,152.708 687.01,156.374 689.5,159.5C 689.5,159.833 689.5,160.167 689.5,160.5C 690.022,165.067 691.355,169.4 693.5,173.5C 687.537,174.496 681.537,174.829 675.5,174.5C 675.293,171.759 674.293,169.426 672.5,167.5C 672.655,164.284 671.655,161.617 669.5,159.5C 656.876,157.519 643.876,156.852 630.5,157.5C 630.5,158.5 630.5,159.5 630.5,160.5C 627.321,164.502 625.655,169.169 625.5,174.5C 619.074,175.12 613.074,174.453 607.5,172.5C 611.085,163.337 614.085,154.003 616.5,144.5C 621.138,134.591 624.804,124.258 627.5,113.5C 630.602,107.198 632.936,100.531 634.5,93.5C 635.931,92.2196 636.598,90.5529 636.5,88.5C 637.117,88.3893 637.617,88.056 638,87.5C 640.305,81.2764 642.138,74.943 643.5,68.5C 646.116,64.2481 647.95,59.5815 649,54.5C 649.417,53.244 650.25,52.5774 651.5,52.5 Z M 651.5,109.5 C 654.258,117.997 657.258,126.331 660.5,134.5C 660.67,135.822 660.337,136.989 659.5,138C 656.167,138.167 652.833,138.333 649.5,138.5C 645.761,138.486 642.428,137.82 639.5,136.5C 639.5,136.167 639.5,135.833 639.5,135.5C 641.935,131.201 643.602,126.534 644.5,121.5C 646.02,119.11 647.02,116.443 647.5,113.5C 648.338,113.158 648.672,112.492 648.5,111.5C 649.268,110.737 649.768,109.737 650,108.5C 650.383,109.056 650.883,109.389 651.5,109.5 Z"/></g>
<g><path style="opacity:0.471" fill="#5c5c5c" d="M 553.5,53.5 C 556.068,58.5254 558.068,63.8587 559.5,69.5C 558.883,69.3893 558.383,69.056 558,68.5C 556.184,63.5543 554.684,58.5543 553.5,53.5 Z"/></g>
<g><path style="opacity:0.082" fill="#3c2609" d="M 125.5,55.5 C 125.5,56.1667 125.5,56.8333 125.5,57.5C 124.833,57.8333 124.167,58.1667 123.5,58.5C 123.427,56.9731 124.094,55.9731 125.5,55.5 Z"/></g>
<g><path style="opacity:0.522" fill="#6f6f6f" d="M 463.5,51.5 C 456.901,54.1257 450.234,56.7924 443.5,59.5C 449.368,55.0938 456.035,52.4271 463.5,51.5 Z"/></g>
<g><path style="opacity:0.051" fill="#262626" d="M 17.5,56.5 C 19.3264,58.1475 20.6597,60.1475 21.5,62.5C 19.1782,61.1979 17.8449,59.1979 17.5,56.5 Z"/></g>
<g><path style="opacity:0.125" fill="#432b0b" d="M 197.5,54.5 C 196.008,58.8178 194.008,62.8178 191.5,66.5C 191.5,65.5 191.5,64.5 191.5,63.5C 193.008,61.8185 194.008,59.8185 194.5,57.5C 195.272,56.3065 196.272,55.3065 197.5,54.5 Z"/></g>
<g><path style="opacity:0.02" fill="#262626" d="M 298.5,53.5 C 296.628,58.0432 293.628,61.7099 289.5,64.5C 292.129,60.5373 295.129,56.8706 298.5,53.5 Z"/></g>
<g><path style="opacity:0.267" fill="#696969" d="M 271.5,57.5 C 270.243,60.4274 268.243,62.7607 265.5,64.5C 266.757,61.5726 268.757,59.2393 271.5,57.5 Z"/></g>
<g><path style="opacity:0.184" fill="#5f5f5f" d="M 443.5,59.5 C 443.027,60.9063 442.027,61.573 440.5,61.5C 440.973,60.0937 441.973,59.427 443.5,59.5 Z"/></g>
<g><path style="opacity:0.984" fill="#a4a4a4" d="M 505.5,58.5 C 507.674,58.7497 509.341,59.7497 510.5,61.5C 508.387,60.7437 506.387,60.5771 504.5,61C 505.252,60.3292 505.586,59.4959 505.5,58.5 Z"/></g>
<g><path style="opacity:0.184" fill="#4b4b4b" d="M 652.5,55.5 C 654.074,57.1016 654.741,59.1016 654.5,61.5C 652.926,59.8984 652.259,57.8984 652.5,55.5 Z"/></g>
<g><path style="opacity:0.424" fill="#616161" d="M 321.5,61.5 C 324.573,63.5691 326.906,66.2358 328.5,69.5C 325.427,67.4309 323.094,64.7642 321.5,61.5 Z"/></g>
<g><path style="opacity:0.278" fill="#3f3f3f" d="M 651.5,52.5 C 650.25,52.5774 649.417,53.244 649,54.5C 647.95,59.5815 646.116,64.2481 643.5,68.5C 644.895,62.3152 646.895,56.3152 649.5,50.5C 650.522,50.8555 651.189,51.5222 651.5,52.5 Z"/></g>
<g><path style="opacity:0.831" fill="#979797" d="M 511.5,61.5 C 513.167,62.5 514.5,63.8333 515.5,65.5C 512.858,65.5123 511.525,64.179 511.5,61.5 Z"/></g>
<g><path style="opacity:0.416" fill="#515151" d="M 654.5,61.5 C 657.068,66.5254 659.068,71.8587 660.5,77.5C 659.883,77.3893 659.383,77.056 659,76.5C 657.184,71.5543 655.684,66.5543 654.5,61.5 Z"/></g>
<g><path style="opacity:0.247" fill="#717171" d="M 265.5,64.5 C 265.262,66.4044 264.262,67.7377 262.5,68.5C 262.738,66.5956 263.738,65.2623 265.5,64.5 Z"/></g>
<g><path style="opacity:0.055" fill="#343434" d="M 22.5,64.5 C 23.9063,64.9731 24.573,65.9731 24.5,67.5C 23.0937,67.0269 22.427,66.0269 22.5,64.5 Z"/></g>
<g><path style="opacity:0.165" fill="#555555" d="M 516.5,65.5 C 519.243,67.2393 521.243,69.5726 522.5,72.5C 519.757,70.7607 517.757,68.4274 516.5,65.5 Z"/></g>
<g><path style="opacity:0.747" fill="#cea63a" d="M 125.5,57.5 C 125.5,58.1667 125.5,58.8333 125.5,59.5C 123.018,61.5027 122.018,64.1694 122.5,67.5C 142.167,67.5 161.833,67.5 181.5,67.5C 184.167,67.5 186.833,67.5 189.5,67.5C 189.229,65.6203 189.896,64.287 191.5,63.5C 191.5,64.5 191.5,65.5 191.5,66.5C 191.167,67.1667 190.833,67.8333 190.5,68.5C 167.167,68.5 143.833,68.5 120.5,68.5C 120.629,66.7839 120.962,65.1172 121.5,63.5C 121.796,61.597 122.463,59.9303 123.5,58.5C 124.167,58.1667 124.833,57.8333 125.5,57.5 Z"/></g>
<g><path style="opacity:0.67" fill="#c0c0c0" d="M 109.5,67.5 C 109.672,68.4916 109.338,69.1583 108.5,69.5C 97.5,69.5 86.5,69.5 75.5,69.5C 86.7348,68.8133 98.0682,68.1467 109.5,67.5 Z"/></g>
<g><path style="opacity:0.298" fill="#48350c" d="M 121.5,63.5 C 120.962,65.1172 120.629,66.7839 120.5,68.5C 143.833,68.5 167.167,68.5 190.5,68.5C 190.082,69.2216 189.416,69.7216 188.5,70C 166.991,70.4714 145.657,70.6381 124.5,70.5C 117.958,70.0306 116.958,67.6972 121.5,63.5 Z"/></g>
<g><path style="opacity:0.047" fill="#424242" d="M 288.5,65.5 C 287.92,67.7488 286.587,69.4154 284.5,70.5C 285.08,68.2512 286.413,66.5846 288.5,65.5 Z"/></g>
<g><path style="opacity:0.139" fill="#696969" d="M 494.5,73.5 C 483.717,69.2772 472.717,68.6106 461.5,71.5C 465.192,69.0668 469.359,68.0668 474,68.5C 478.545,68.603 483.045,69.103 487.5,70C 490.281,70.5218 492.615,71.6885 494.5,73.5 Z"/></g>
<g><path style="opacity:0.161" fill="#5f5f5f" d="M 440.5,61.5 C 436.193,65.4718 431.859,69.4718 427.5,73.5C 430.554,68.1129 434.887,64.1129 440.5,61.5 Z"/></g>
<g><path style="opacity:0.013" fill="#131313" d="M 75.5,69.5 C 86.5,69.5 97.5,69.5 108.5,69.5C 98.0131,70.4944 87.3464,70.8278 76.5,70.5C 76.8317,105.004 76.4983,139.337 75.5,173.5C 75.5,138.833 75.5,104.167 75.5,69.5 Z"/></g>
<g><path style="opacity:0.161" fill="#565656" d="M 243.5,91.5 C 239.089,97.2892 234.422,102.956 229.5,108.5C 228.5,89.5117 228.167,70.5117 228.5,51.5C 222.833,51.5 217.167,51.5 211.5,51.5C 211.5,51.1667 211.5,50.8333 211.5,50.5C 217.5,49.1667 223.5,49.1667 229.5,50.5C 229.96,67.7438 229.96,84.9105 229.5,102C 229.833,102.833 230.167,103.667 230.5,104.5C 234.494,99.8394 238.827,95.5061 243.5,91.5 Z"/></g>
<g><path style="opacity:0.247" fill="#727272" d="M 262.5,68.5 C 261.243,71.4274 259.243,73.7607 256.5,75.5C 257.757,72.5726 259.757,70.2393 262.5,68.5 Z"/></g>
<g><path style="opacity:0.435" fill="#686868" d="M 330.5,71.5 C 333.573,73.5691 335.906,76.2358 337.5,79.5C 334.427,77.4309 332.094,74.7642 330.5,71.5 Z"/></g>
<g><path style="opacity:0.129" fill="#5d5d5d" d="M 461.5,71.5 C 458.686,73.0697 455.686,74.4031 452.5,75.5C 454.835,72.8352 457.835,71.5018 461.5,71.5 Z"/></g>
<g><path style="opacity:0.016" fill="#343434" d="M 282.5,72.5 C 282.573,74.0269 281.906,75.0269 280.5,75.5C 280.427,73.9731 281.094,72.9731 282.5,72.5 Z"/></g>
<g><path style="opacity:0.478" fill="#7a7a7a" d="M 522.5,72.5 C 524.587,73.5846 525.92,75.2512 526.5,77.5C 524.413,76.4154 523.08,74.7488 522.5,72.5 Z"/></g>
<g><path style="opacity:0.09" fill="#434343" d="M 496.5,74.5 C 498.027,74.427 499.027,75.0937 499.5,76.5C 497.973,76.573 496.973,75.9063 496.5,74.5 Z"/></g>
<g><path style="opacity:0.114" fill="#494949" d="M 614.5,73.5 C 614.02,76.4432 613.02,79.1098 611.5,81.5C 611.415,78.3511 612.415,75.6845 614.5,73.5 Z"/></g>
<g><path style="opacity:0.086" fill="#545454" d="M 427.5,73.5 C 425.86,76.1492 424.193,78.8159 422.5,81.5C 422.167,81.5 421.833,81.5 421.5,81.5C 422.529,78.1092 424.529,75.4426 427.5,73.5 Z"/></g>
<g><path style="opacity:0.118" fill="#434343" d="M 499.5,76.5 C 501.027,76.427 502.027,77.0937 502.5,78.5C 500.973,78.573 499.973,77.9063 499.5,76.5 Z"/></g>
<g><path style="opacity:0.165" fill="#656565" d="M 256.5,75.5 C 255.92,77.7488 254.587,79.4154 252.5,80.5C 253.08,78.2512 254.413,76.5846 256.5,75.5 Z"/></g>
<g><path style="opacity:0.345" fill="#606060" d="M 502.5,78.5 C 506.167,80.1667 508.833,82.8333 510.5,86.5C 507.5,84.1667 504.833,81.5 502.5,78.5 Z"/></g>
<g><path style="opacity:0.851" fill="#a8a8a8" d="M 559.5,70.5 C 561.204,73.9385 562.538,77.6052 563.5,81.5C 562.542,81.0472 561.708,80.3805 561,79.5C 560.304,76.5219 559.804,73.5219 559.5,70.5 Z"/></g>
<g><path style="opacity:0.255" fill="#4e4e4e" d="M 602.5,51.5 C 598.308,65.5331 593.308,79.1997 587.5,92.5C 591.535,78.3865 596.535,64.7199 602.5,51.5 Z"/></g>
<g><path style="opacity:0.176" fill="#777777" d="M 526.5,77.5 C 527.906,77.9731 528.573,78.9731 528.5,80.5C 527.094,80.0269 526.427,79.0269 526.5,77.5 Z"/></g>
<g><path style="opacity:0.298" fill="#5c5c5c" d="M 643.5,68.5 C 642.138,74.943 640.305,81.2764 638,87.5C 637.617,88.056 637.117,88.3893 636.5,88.5C 638.064,81.4691 640.398,74.8024 643.5,68.5 Z"/></g>
<g><path style="opacity:0.922" fill="#878787" d="M 276.5,80.5 C 274.823,82.5398 273.156,84.5398 271.5,86.5C 272.15,84.5648 272.483,82.5648 272.5,80.5C 273.833,80.5 275.167,80.5 276.5,80.5 Z"/></g>
<g><path style="opacity:0.569" fill="#727272" d="M 337.5,79.5 C 342.23,83.2269 346.23,87.5603 349.5,92.5C 344.77,88.7731 340.77,84.4397 337.5,79.5 Z"/></g>
<g><path style="opacity:0.02" fill="#4f4f4f" d="M 447.5,79.5 C 446.167,81.5 444.5,83.1667 442.5,84.5C 443.167,81.8333 444.833,80.1667 447.5,79.5 Z"/></g>
<g><path style="opacity:0.133" fill="#6b6b6b" d="M 528.5,80.5 C 529.906,80.9731 530.573,81.9731 530.5,83.5C 529.094,83.0269 528.427,82.0269 528.5,80.5 Z"/></g>
<g><path style="opacity:0.227" fill="#717171" d="M 252.5,80.5 C 251.581,83.0892 249.914,85.0892 247.5,86.5C 248.419,83.9108 250.086,81.9108 252.5,80.5 Z"/></g>
<g><path style="opacity:0.1" fill="#424242" d="M 382.5,51.5 C 382.667,77.1688 382.5,102.835 382,128.5C 377.232,124.24 373.066,119.573 369.5,114.5C 373.464,117.963 377.298,121.63 381,125.5C 381.168,100.663 381.668,75.9966 382.5,51.5 Z"/></g>
<g><path style="opacity:0.776" fill="#a3a3a3" d="M 421.5,81.5 C 421.833,81.5 422.167,81.5 422.5,81.5C 422.446,83.632 421.446,84.9653 419.5,85.5C 419.66,83.847 420.326,82.5137 421.5,81.5 Z"/></g>
<g><path style="opacity:0.278" fill="#626262" d="M 610.5,84.5 C 610.267,87.5418 609.267,90.2084 607.5,92.5C 607.345,89.284 608.345,86.6174 610.5,84.5 Z"/></g>
<g><path style="opacity:0.875" fill="#a5a5a5" d="M 660.5,78.5 C 661.871,80.936 662.871,83.6027 663.5,86.5C 663.5,87.1667 663.5,87.8333 663.5,88.5C 662.883,88.3893 662.383,88.056 662,87.5C 661.304,84.5219 660.804,81.5219 660.5,78.5 Z"/></g>
<g><path style="opacity:0.792" fill="#9f9f9f" d="M 440.5,86.5 C 439.974,88.2303 438.974,89.5637 437.5,90.5C 437.5,89.1667 437.5,87.8333 437.5,86.5C 438.5,86.5 439.5,86.5 440.5,86.5 Z"/></g>
<g><path style="opacity:0.431" fill="#868686" d="M 563.5,82.5 C 565.065,84.5093 566.065,86.8427 566.5,89.5C 564.166,87.8243 563.166,85.491 563.5,82.5 Z"/></g>
<g><path style="opacity:0.733" fill="#7d7d7d" d="M 419.5,85.5 C 419.248,89.3267 417.915,92.6601 415.5,95.5C 415.752,91.6733 417.085,88.3399 419.5,85.5 Z"/></g>
<g><path style="opacity:0.055" fill="#3e3e3e" d="M 510.5,86.5 C 511.906,86.9731 512.573,87.9731 512.5,89.5C 511.094,89.0269 510.427,88.0269 510.5,86.5 Z"/></g>
<g><path style="opacity:0.18" fill="#6e6e6e" d="M 247.5,86.5 C 246.92,88.7488 245.587,90.4154 243.5,91.5C 244.08,89.2512 245.413,87.5846 247.5,86.5 Z"/></g>
<g><path style="opacity:0.349" fill="#636363" d="M 663.5,86.5 C 665.204,89.9385 666.538,93.6052 667.5,97.5C 665.416,94.9466 664.083,91.9466 663.5,88.5C 663.5,87.8333 663.5,87.1667 663.5,86.5 Z"/></g>
<g><path style="opacity:0.682" fill="#6c6c6c" d="M 532.5,87.5 C 535.346,92.3757 537.013,97.709 537.5,103.5C 535.457,98.3664 533.79,93.033 532.5,87.5 Z"/></g>
<g><path style="opacity:0.016" fill="#4c4c4c" d="M 268.5,89.5 C 268.262,91.4044 267.262,92.7377 265.5,93.5C 265.738,91.5956 266.738,90.2623 268.5,89.5 Z"/></g>
<g><path style="opacity:0.063" fill="#333333" d="M 636.5,88.5 C 636.598,90.5529 635.931,92.2196 634.5,93.5C 634.402,91.4471 635.069,89.7804 636.5,88.5 Z"/></g>
<g><path style="opacity:0.776" fill="#949494" d="M 437.5,90.5 C 436.403,93.6865 435.07,96.6865 433.5,99.5C 433.198,95.6201 434.531,92.6201 437.5,90.5 Z"/></g>
<g><path style="opacity:0.514" fill="#5e5e5e" d="M 349.5,92.5 C 354.562,96.5593 358.895,101.226 362.5,106.5C 357.438,102.441 353.105,97.774 349.5,92.5 Z"/></g>
<g><path style="opacity:0.616" fill="#777777" d="M 566.5,90.5 C 568.642,93.8004 569.975,97.467 570.5,101.5C 568.358,98.1996 567.025,94.533 566.5,90.5 Z"/></g>
<g><path style="opacity:0.059" fill="#1d1d1d" d="M 26.5,69.5 C 36.5,69.5 46.5,69.5 56.5,69.5C 56.5,105.167 56.5,140.833 56.5,176.5C 55.5016,141.337 55.1683,106.004 55.5,70.5C 45.6522,70.8271 35.9856,70.4938 26.5,69.5 Z"/></g>
<g><path style="opacity:0.365" fill="#727272" d="M 607.5,92.5 C 607.405,94.7857 606.738,96.7857 605.5,98.5C 605.054,95.9899 605.72,93.9899 607.5,92.5 Z"/></g>
<g><path style="opacity:0.043" fill="#343434" d="M 634.5,93.5 C 632.936,100.531 630.602,107.198 627.5,113.5C 629.064,106.469 631.398,99.8024 634.5,93.5 Z"/></g>
<g><path style="opacity:0.017" fill="#030303" d="M 330.5,98.5 C 330.833,99.1667 331.167,99.8333 331.5,100.5C 330.833,104.833 330.167,109.167 329.5,113.5C 329.179,108.305 329.513,103.305 330.5,98.5 Z"/></g>
<g><path style="opacity:0.22" fill="#4e4e4e" d="M 587.5,92.5 C 584.978,101.567 582.145,110.567 579,119.5C 578.107,120.711 577.274,120.711 576.5,119.5C 575.054,117.382 574.387,115.049 574.5,112.5C 575.644,114.1 576.811,115.767 578,117.5C 580.901,108.951 584.067,100.617 587.5,92.5 Z"/></g>
<g><path style="opacity:0.29" fill="#737373" d="M 331.5,100.5 C 334.5,100.833 336.167,102.5 336.5,105.5C 334.5,104.167 332.833,102.5 331.5,100.5 Z"/></g>
<g><path style="opacity:0.106" fill="#454545" d="M 415.5,95.5 C 415.706,98.4951 415.04,101.162 413.5,103.5C 413.565,100.572 414.232,97.9052 415.5,95.5 Z"/></g>
<g><path style="opacity:0.204" fill="#5e5e5e" d="M 604.5,101.5 C 604.598,103.553 603.931,105.22 602.5,106.5C 602.12,104.302 602.787,102.635 604.5,101.5 Z"/></g>
<g><path style="opacity:0.357" fill="#696969" d="M 667.5,98.5 C 669.4,101.518 670.733,104.851 671.5,108.5C 669.103,105.691 667.77,102.358 667.5,98.5 Z"/></g>
<g><path style="opacity:0.187" fill="#601915" d="M 190.5,121.5 C 190.833,120.167 191.167,118.833 191.5,117.5C 193.653,114.778 194.986,111.611 195.5,108C 195.164,106.97 194.497,106.47 193.5,106.5C 171.673,105.503 149.673,105.169 127.5,105.5C 130.023,104.746 132.689,104.08 135.5,103.5C 152.03,104.828 168.53,104.828 185,103.5C 189.08,104.3 193.247,104.8 197.5,105C 198.517,106.049 198.684,107.216 198,108.5C 195.978,113.223 193.478,117.557 190.5,121.5 Z"/></g>
<g><path style="opacity:0.698" fill="#a93f34" d="M 127.5,105.5 C 149.673,105.169 171.673,105.503 193.5,106.5C 171.66,106.169 149.994,106.503 128.5,107.5C 127.778,108.551 126.778,109.218 125.5,109.5C 125.66,107.847 126.326,106.514 127.5,105.5 Z"/></g>
<g><path style="opacity:0.404" fill="#838383" d="M 336.5,105.5 C 338.5,105.5 339.5,106.5 339.5,108.5C 338.167,107.833 337.167,106.833 336.5,105.5 Z"/></g>
<g><path style="opacity:0.983" fill="#cf4a3e" d="M 128.5,107.5 C 149.994,106.503 171.66,106.169 193.5,106.5C 194.497,106.47 195.164,106.97 195.5,108C 194.986,111.611 193.653,114.778 191.5,117.5C 192.758,114.306 193.424,110.973 193.5,107.5C 171.833,107.5 150.167,107.5 128.5,107.5 Z"/></g>
<g><path style="opacity:0.318" fill="#6a6a6a" d="M 570.5,101.5 C 572.4,104.518 573.733,107.851 574.5,111.5C 572.103,108.691 570.77,105.358 570.5,101.5 Z"/></g>
<g><path style="opacity:0.537" fill="#646464" d="M 651.5,109.5 C 650.883,109.389 650.383,109.056 650,108.5C 649.768,109.737 649.268,110.737 648.5,111.5C 648.5,109.5 648.5,107.5 648.5,105.5C 649.5,105.5 650.5,105.5 651.5,105.5C 651.5,106.833 651.5,108.167 651.5,109.5 Z"/></g>
<g><path style="opacity:1" fill="#df4639" d="M 128.5,107.5 C 150.167,107.5 171.833,107.5 193.5,107.5C 193.424,110.973 192.758,114.306 191.5,117.5C 190.363,118.789 189.03,119.789 187.5,120.5C 176.672,121.167 165.672,121.5 154.5,121.5C 143.146,121.499 132.146,120.832 121.5,119.5C 124.917,117.109 126.25,113.775 125.5,109.5C 126.778,109.218 127.778,108.551 128.5,107.5 Z"/></g>
<g><path style="opacity:0.439" fill="#5a5a5a" d="M 362.5,106.5 C 365.573,108.569 367.906,111.236 369.5,114.5C 366.427,112.431 364.094,109.764 362.5,106.5 Z"/></g>
<g><path style="opacity:1" fill="#ea4034" d="M 187.5,120.5 C 172.83,120.667 158.163,120.5 143.5,120C 141.03,118.886 138.364,118.386 135.5,118.5C 127.954,121.741 125.287,119.407 127.5,111.5C 128.672,111.081 129.672,110.415 130.5,109.5C 151.156,108.5 171.823,108.167 192.5,108.5C 191.584,112.94 189.918,116.94 187.5,120.5 Z"/></g>
<g><path style="opacity:0.153" fill="#464646" d="M 552.5,51.5 C 546.5,51.5 540.5,51.5 534.5,51.5C 546.036,84.7761 557.37,118.109 568.5,151.5C 556.279,118.696 544.279,85.6961 532.5,52.5C 532.977,51.5224 533.643,50.6891 534.5,50C 536.833,49.8333 539.167,49.6667 541.5,49.5C 545.447,49.3629 549.114,50.0296 552.5,51.5 Z"/></g>
<g><path style="opacity:0.165" fill="#4f4f4f" d="M 602.5,106.5 C 602.405,108.786 601.738,110.786 600.5,112.5C 600.259,110.102 600.926,108.102 602.5,106.5 Z"/></g>
<g><path style="opacity:0.016" fill="#4d4d4d" d="M 339.5,108.5 C 342.243,110.239 344.243,112.573 345.5,115.5C 342.757,113.761 340.757,111.427 339.5,108.5 Z"/></g>
<g><path style="opacity:0.105" fill="#2c2c2c" d="M 413.5,104.5 C 413.336,111.202 413.669,117.869 414.5,124.5C 414.5,125.5 414.5,126.5 414.5,127.5C 413.072,122.912 412.405,118.079 412.5,113C 412.502,109.979 412.836,107.146 413.5,104.5 Z"/></g>
<g><path style="opacity:0.496" fill="#7e7e7e" d="M 432.5,105.5 C 432.336,112.202 432.669,118.869 433.5,125.5C 431.067,121.808 430.067,117.641 430.5,113C 430.525,110.071 431.191,107.571 432.5,105.5 Z"/></g>
<g><path style="opacity:0.22" fill="#525252" d="M 651.5,109.5 C 655.846,117.223 658.846,125.557 660.5,134.5C 657.258,126.331 654.258,117.997 651.5,109.5 Z"/></g>
<g><path style="opacity:0.494" fill="#666666" d="M 671.5,109.5 C 675.68,119.216 679.347,129.216 682.5,139.5C 677.677,130.04 674.01,120.04 671.5,109.5 Z"/></g>
<g><path style="opacity:0.91" fill="#a6a6a6" d="M 345.5,115.5 C 348.179,115.525 349.512,116.858 349.5,119.5C 349.167,119.5 348.833,119.5 348.5,119.5C 347.5,118.167 346.5,116.833 345.5,115.5 Z"/></g>
<g><path style="opacity:0.075" fill="#3e3e3e" d="M 512.5,89.5 C 518.027,96.2404 520.36,104.074 519.5,113C 519.489,117.889 518.989,122.723 518,127.5C 517.576,130.025 516.41,132.025 514.5,133.5C 520.314,118.531 519.648,103.865 512.5,89.5 Z"/></g>
<g><path style="opacity:0.125" fill="#5c5c5c" d="M 647.5,113.5 C 647.02,116.443 646.02,119.11 644.5,121.5C 644.415,118.351 645.415,115.684 647.5,113.5 Z"/></g>
<g><path style="opacity:0.129" fill="#555555" d="M 265.5,115.5 C 266.906,115.973 267.573,116.973 267.5,118.5C 266.094,118.027 265.427,117.027 265.5,115.5 Z"/></g>
<g><path style="opacity:0.027" fill="#343434" d="M 247.5,120.5 C 246.292,119.766 244.959,119.433 243.5,119.5C 245.423,116.782 246.756,117.116 247.5,120.5 Z"/></g>
<g><path style="opacity:0.235" fill="#4d4d4d" d="M 627.5,113.5 C 624.804,124.258 621.138,134.591 616.5,144.5C 619.357,133.804 623.024,123.471 627.5,113.5 Z"/></g>
<g><path style="opacity:0.345" fill="#787878" d="M 598.5,117.5 C 598.405,119.786 597.738,121.786 596.5,123.5C 596.054,120.99 596.72,118.99 598.5,117.5 Z"/></g>
<g><path style="opacity:0.624" fill="#bc4e44" d="M 191.5,117.5 C 191.167,118.833 190.833,120.167 190.5,121.5C 190.5,122.167 190.167,122.5 189.5,122.5C 166.164,122.667 142.831,122.5 119.5,122C 120.066,121.005 120.733,120.172 121.5,119.5C 132.146,120.832 143.146,121.499 154.5,121.5C 165.672,121.5 176.672,121.167 187.5,120.5C 189.03,119.789 190.363,118.789 191.5,117.5 Z"/></g>
<g><path style="opacity:0.02" fill="#474747" d="M 348.5,119.5 C 348.833,119.5 349.167,119.5 349.5,119.5C 352.243,121.239 354.243,123.573 355.5,126.5C 352.833,124.5 350.5,122.167 348.5,119.5 Z"/></g>
<g><path style="opacity:0.208" fill="#70221d" d="M 125.5,109.5 C 126.25,113.775 124.917,117.109 121.5,119.5C 120.733,120.172 120.066,121.005 119.5,122C 142.831,122.5 166.164,122.667 189.5,122.5C 166.006,123.498 142.339,123.831 118.5,123.5C 119.793,118.247 122.126,113.581 125.5,109.5 Z"/></g>
<g><path style="opacity:0.071" fill="#494949" d="M 248.5,122.5 C 249.906,122.973 250.573,123.973 250.5,125.5C 249.094,125.027 248.427,124.027 248.5,122.5 Z"/></g>
<g><path style="opacity:0.122" fill="#525252" d="M 269.5,122.5 C 270.906,122.973 271.573,123.973 271.5,125.5C 270.094,125.027 269.427,124.027 269.5,122.5 Z"/></g>
<g><path style="opacity:0.071" fill="#333333" d="M 537.5,122.5 C 537.692,126.902 536.692,130.902 534.5,134.5C 535.132,130.298 536.132,126.298 537.5,122.5 Z"/></g>
<g><path style="opacity:0.239" fill="#656565" d="M 596.5,123.5 C 596.405,125.786 595.738,127.786 594.5,129.5C 594.054,126.99 594.72,124.99 596.5,123.5 Z"/></g>
<g><path style="opacity:0.141" fill="#626262" d="M 414.5,124.5 C 415.787,128.313 416.787,132.313 417.5,136.5C 415.747,133.854 414.747,130.854 414.5,127.5C 414.5,126.5 414.5,125.5 414.5,124.5 Z"/></g>
<g><path style="opacity:0.087" fill="#2e2e2e" d="M 312.5,51.5 C 311.501,92.3299 311.168,133.33 311.5,174.5C 310.169,133.331 310.169,91.998 311.5,50.5C 312.107,50.6236 312.44,50.9569 312.5,51.5 Z"/></g>
<g><path style="opacity:0.424" fill="#777777" d="M 433.5,126.5 C 434.537,127.93 435.204,129.597 435.5,131.5C 433.787,130.365 433.12,128.698 433.5,126.5 Z"/></g>
<g><path style="opacity:0.12" fill="#515151" d="M 211.5,50.5 C 211.5,50.8333 211.5,51.1667 211.5,51.5C 211.5,92.5 211.5,133.5 211.5,174.5C 210.828,135.294 210.161,95.9607 209.5,56.5C 210.05,54.3432 210.717,52.3432 211.5,50.5 Z"/></g>
<g><path style="opacity:0.082" fill="#4a4a4a" d="M 252.5,129.5 C 253.906,129.973 254.573,130.973 254.5,132.5C 253.094,132.027 252.427,131.027 252.5,129.5 Z"/></g>
<g><path style="opacity:0.129" fill="#545454" d="M 273.5,129.5 C 274.906,129.973 275.573,130.973 275.5,132.5C 274.094,132.027 273.427,131.027 273.5,129.5 Z"/></g>
<g><path style="opacity:0.518" fill="#7b7b7b" d="M 644.5,121.5 C 643.602,126.534 641.935,131.201 639.5,135.5C 639.34,133.801 639.506,132.134 640,130.5C 641.047,127.141 642.547,124.141 644.5,121.5 Z"/></g>
<g><path style="opacity:0.153" fill="#5b5b5b" d="M 359.5,130.5 C 362.52,132.523 364.854,135.19 366.5,138.5C 363.45,136.451 361.117,133.784 359.5,130.5 Z"/></g>
<g><path style="opacity:0.169" fill="#636363" d="M 593.5,131.5 C 593.405,133.786 592.738,135.786 591.5,137.5C 591.259,135.102 591.926,133.102 593.5,131.5 Z"/></g>
<g><path style="opacity:0.102" fill="#454545" d="M 276.5,134.5 C 277.906,134.973 278.573,135.973 278.5,137.5C 277.094,137.027 276.427,136.027 276.5,134.5 Z"/></g>
<g><path style="opacity:0.145" fill="#5c5c5c" d="M 437.5,135.5 C 438.906,135.973 439.573,136.973 439.5,138.5C 438.094,138.027 437.427,137.027 437.5,135.5 Z"/></g>
<g><path style="opacity:0.322" fill="#797979" d="M 366.5,138.5 C 368.5,138.5 369.5,139.5 369.5,141.5C 368.167,140.833 367.167,139.833 366.5,138.5 Z"/></g>
<g><path style="opacity:0.024" fill="#252525" d="M 660.5,134.5 C 661.931,135.78 662.598,137.447 662.5,139.5C 654.5,139.5 646.5,139.5 638.5,139.5C 638.5,138.5 638.5,137.5 638.5,136.5C 638.833,136.5 639.167,136.5 639.5,136.5C 642.428,137.82 645.761,138.486 649.5,138.5C 652.833,138.333 656.167,138.167 659.5,138C 660.337,136.989 660.67,135.822 660.5,134.5 Z"/></g>
<g><path style="opacity:0.09" fill="#414141" d="M 417.5,136.5 C 419.341,138.849 420.674,141.515 421.5,144.5C 419.127,142.421 417.794,139.754 417.5,136.5 Z"/></g>
<g><path style="opacity:0.31" fill="#464646" d="M 439.5,138.5 C 443.167,141.5 446.5,144.833 449.5,148.5C 445.167,146.167 441.833,142.833 439.5,138.5 Z"/></g>
<g><path style="opacity:0.212" fill="#757575" d="M 591.5,137.5 C 590.538,141.395 589.204,145.061 587.5,148.5C 587.677,144.292 589.01,140.626 591.5,137.5 Z"/></g>
<g><path style="opacity:0.37" fill="#9f9f9f" d="M 638.5,136.5 C 638.5,137.5 638.5,138.5 638.5,139.5C 646.5,139.5 654.5,139.5 662.5,139.5C 654.35,140.493 646.017,140.826 637.5,140.5C 637.232,138.901 637.566,137.568 638.5,136.5 Z"/></g>
<g><path style="opacity:0.075" fill="#3b3b3b" d="M 257.5,138.5 C 258.906,138.973 259.573,139.973 259.5,141.5C 258.094,141.027 257.427,140.027 257.5,138.5 Z"/></g>
<g><path style="opacity:0.188" fill="#444444" d="M 514.5,133.5 C 513.054,138.061 510.387,141.728 506.5,144.5C 508.925,140.648 511.591,136.981 514.5,133.5 Z"/></g>
<g><path style="opacity:0.902" fill="#7c7c7c" d="M 259.5,141.5 C 262.093,143.008 263.426,145.341 263.5,148.5C 261.412,146.664 260.079,144.331 259.5,141.5 Z"/></g>
<g><path style="opacity:0.298" fill="#565656" d="M 682.5,139.5 C 683.871,141.936 684.871,144.603 685.5,147.5C 683.345,145.383 682.345,142.716 682.5,139.5 Z"/></g>
<g><path style="opacity:0.118" fill="#424242" d="M 280.5,141.5 C 281.906,141.973 282.573,142.973 282.5,144.5C 281.094,144.027 280.427,143.027 280.5,141.5 Z"/></g>
<g><path style="opacity:0.094" fill="#474747" d="M 534.5,134.5 C 533.035,140.77 530.035,146.104 525.5,150.5C 528.503,145.159 531.503,139.825 534.5,134.5 Z"/></g>
<g><path style="opacity:0.157" fill="#505050" d="M 371.5,144.5 C 373.833,144.833 375.167,146.167 375.5,148.5C 373.833,147.5 372.5,146.167 371.5,144.5 Z"/></g>
<g><path style="opacity:0.157" fill="#4d4d4d" d="M 506.5,144.5 C 504.687,147.647 502.02,149.647 498.5,150.5C 500.878,148.122 503.545,146.122 506.5,144.5 Z"/></g>
<g><path style="opacity:0.31" fill="#6d6d6d" d="M 330.5,98.5 C 329.513,103.305 329.179,108.305 329.5,113.5C 330.577,133.151 330.743,152.818 330,172.5C 329.682,174.061 328.849,175.228 327.5,176C 321.895,176.923 316.561,176.423 311.5,174.5C 317.167,174.5 322.833,174.5 328.5,174.5C 328.167,148.825 328.5,123.158 329.5,97.5C 330.107,97.6236 330.44,97.9569 330.5,98.5 Z"/></g>
<g><path style="opacity:0.004" fill="#292929" d="M 422.5,146.5 C 423.906,146.973 424.573,147.973 424.5,149.5C 423.094,149.027 422.427,148.027 422.5,146.5 Z"/></g>
<g><path style="opacity:0.09" fill="#373737" d="M 283.5,146.5 C 284.906,146.973 285.573,147.973 285.5,149.5C 284.094,149.027 283.427,148.027 283.5,146.5 Z"/></g>
<g><path style="opacity:0.267" fill="#737373" d="M 375.5,148.5 C 377.5,148.5 378.5,149.5 378.5,151.5C 377.167,150.833 376.167,149.833 375.5,148.5 Z"/></g>
<g><path style="opacity:0.261" fill="#626262" d="M 399.5,51.5 C 400.268,52.2625 400.768,53.2625 401,54.5C 401.167,61.1667 401.333,67.8333 401.5,74.5C 400.47,107.501 400.303,140.501 401,173.5C 398.497,174.238 396.663,173.238 395.5,170.5C 396.583,170.539 397.583,170.873 398.5,171.5C 399.5,131.506 399.833,91.5056 399.5,51.5 Z"/></g>
<g><path style="opacity:0.031" fill="#2d2d2d" d="M 449.5,148.5 C 451.027,148.427 452.027,149.094 452.5,150.5C 450.973,150.573 449.973,149.906 449.5,148.5 Z"/></g>
<g><path style="opacity:0.345" fill="#666666" d="M 587.5,148.5 C 586.739,152.784 585.405,156.784 583.5,160.5C 583.47,155.921 584.804,151.921 587.5,148.5 Z"/></g>
<g><path style="opacity:0.18" fill="#585858" d="M 424.5,149.5 C 426.86,150.865 428.527,152.865 429.5,155.5C 427.11,154.109 425.443,152.109 424.5,149.5 Z"/></g>
<g><path style="opacity:0.376" fill="#777777" d="M 685.5,148.5 C 687.204,151.939 688.538,155.605 689.5,159.5C 687.01,156.374 685.677,152.708 685.5,148.5 Z"/></g>
<g><path style="opacity:0.745" fill="#7b7b7b" d="M 285.5,149.5 C 286.674,150.514 287.34,151.847 287.5,153.5C 285.824,152.817 285.157,151.483 285.5,149.5 Z"/></g>
<g><path style="opacity:0.02" fill="#4d4d4d" d="M 524.5,151.5 C 524.573,153.027 523.906,154.027 522.5,154.5C 522.427,152.973 523.094,151.973 524.5,151.5 Z"/></g>
<g><path style="opacity:0.176" fill="#666666" d="M 234.5,130.5 C 233.25,132.932 231.75,135.266 230,137.5C 229.349,148.997 229.516,160.33 230.5,171.5C 229.902,172.795 229.402,174.128 229,175.5C 226.589,176.139 224.089,176.473 221.5,176.5C 217.859,176.685 214.526,176.019 211.5,174.5C 217.167,174.5 222.833,174.5 228.5,174.5C 228.333,161.829 228.5,149.162 229,136.5C 230.269,135.095 230.769,133.429 230.5,131.5C 231.959,131.567 233.292,131.234 234.5,130.5 Z"/></g>
<g><path style="opacity:0.122" fill="#373737" d="M 287.5,153.5 C 288.906,153.973 289.573,154.973 289.5,156.5C 288.094,156.027 287.427,155.027 287.5,153.5 Z"/></g>
<g><path style="opacity:0.384" fill="#606060" d="M 429.5,155.5 C 432.764,157.094 435.431,159.427 437.5,162.5C 434.236,160.906 431.569,158.573 429.5,155.5 Z"/></g>
<g><path style="opacity:0.122" fill="#5e5e5e" d="M 498.5,150.5 C 496.859,152.258 494.859,153.758 492.5,155C 480.732,158.438 469.065,158.272 457.5,154.5C 456.702,154.043 456.369,153.376 456.5,152.5C 470.796,158.221 484.796,157.554 498.5,150.5 Z"/></g>
<g><path style="opacity:0.165" fill="#5e5e5e" d="M 383.5,157.5 C 385.833,157.833 387.167,159.167 387.5,161.5C 385.833,160.5 384.5,159.167 383.5,157.5 Z"/></g>
<g><path style="opacity:0.061" fill="#454545" d="M 669.5,159.5 C 656.33,157.846 643.33,158.179 630.5,160.5C 630.5,159.5 630.5,158.5 630.5,157.5C 643.876,156.852 656.876,157.519 669.5,159.5 Z"/></g>
<g><path style="opacity:0.348" fill="#0a3061" d="M 196.5,159.5 C 192.833,159.5 189.167,159.5 185.5,159.5C 166.167,159.5 146.833,159.5 127.5,159.5C 127.918,158.778 128.584,158.278 129.5,158C 149.5,157.333 169.5,157.333 189.5,158C 192.036,158.186 194.369,158.686 196.5,159.5 Z"/></g>
<g><path style="opacity:0.455" fill="#5e5e5e" d="M 616.5,144.5 C 614.085,154.003 611.085,163.337 607.5,172.5C 606.596,173.209 606.263,174.209 606.5,175.5C 605.402,174.399 605.235,173.066 606,171.5C 609.43,162.361 612.93,153.361 616.5,144.5 Z"/></g>
<g><path style="opacity:0.78" fill="#7d7d7d" d="M 289.5,156.5 C 290.674,157.514 291.34,158.847 291.5,160.5C 289.824,159.817 289.157,158.483 289.5,156.5 Z"/></g>
<g><path style="opacity:0.102" fill="#3d3d3d" d="M 568.5,151.5 C 571.073,155.761 572.74,160.428 573.5,165.5C 571.065,161.201 569.398,156.534 568.5,151.5 Z"/></g>
<g><path style="opacity:0.259" fill="#5f5f5f" d="M 669.5,159.5 C 671.655,161.617 672.655,164.284 672.5,167.5C 670.98,165.11 669.98,162.443 669.5,159.5 Z"/></g>
<g><path style="opacity:1" fill="#0f74cf" d="M 127.5,159.5 C 146.833,159.5 166.167,159.5 185.5,159.5C 188.358,160.166 191.358,160.833 194.5,161.5C 193.589,166.162 191.922,170.495 189.5,174.5C 167.51,175.5 145.51,175.833 123.5,175.5C 122.503,175.53 121.836,175.03 121.5,174C 122.346,170.562 124.013,167.729 126.5,165.5C 126.517,163.435 126.85,161.435 127.5,159.5 Z"/></g>
<g><path style="opacity:0.09" fill="#303030" d="M 291.5,160.5 C 292.906,160.973 293.573,161.973 293.5,163.5C 292.094,163.027 291.427,162.027 291.5,160.5 Z"/></g>
<g><path style="opacity:0.361" fill="#7d7d7d" d="M 437.5,162.5 C 439.027,162.427 440.027,163.094 440.5,164.5C 438.973,164.573 437.973,163.906 437.5,162.5 Z"/></g>
<g><path style="opacity:1" fill="#0178de" d="M 126.5,165.5 C 129.679,163.691 133.179,162.691 137,162.5C 152.683,163.135 168.349,163.802 184,164.5C 186.434,163.678 188.934,163.344 191.5,163.5C 190.992,168.215 188.658,171.548 184.5,173.5C 182.945,173.278 181.611,172.611 180.5,171.5C 162.877,172.653 145.211,172.819 127.5,172C 126.833,171.333 126.167,170.667 125.5,170C 126.38,168.644 126.714,167.144 126.5,165.5 Z"/></g>
<g><path style="opacity:0.184" fill="#505050" d="M 387.5,161.5 C 388.496,161.414 389.329,161.748 390,162.5C 392.08,165.065 393.913,167.732 395.5,170.5C 392.119,168.12 389.453,165.12 387.5,161.5 Z"/></g>
<g><path style="opacity:0.486" fill="#696969" d="M 582.5,162.5 C 581.986,167.057 580.32,171.057 577.5,174.5C 575.378,171.917 574.045,168.917 573.5,165.5C 575.192,167.514 576.525,169.848 577.5,172.5C 578.807,168.862 580.474,165.529 582.5,162.5 Z"/></g>
<g><path style="opacity:0.176" fill="#818181" d="M 440.5,164.5 C 442.027,164.427 443.027,165.094 443.5,166.5C 441.973,166.573 440.973,165.906 440.5,164.5 Z"/></g>
<g><path style="opacity:0.078" fill="#555555" d="M 272.5,164.5 C 273.906,164.973 274.573,165.973 274.5,167.5C 273.094,167.027 272.427,166.027 272.5,164.5 Z"/></g>
<g><path style="opacity:0.749" fill="#7e7e7e" d="M 293.5,163.5 C 294.674,164.514 295.34,165.847 295.5,167.5C 293.824,166.817 293.157,165.483 293.5,163.5 Z"/></g>
<g><path style="opacity:0.118" fill="#747474" d="M 443.5,166.5 C 445.027,166.427 446.027,167.094 446.5,168.5C 444.973,168.573 443.973,167.906 443.5,166.5 Z"/></g>
<g><path style="opacity:0.686" fill="#858585" d="M 630.5,160.5 C 629.602,165.534 627.935,170.201 625.5,174.5C 625.655,169.169 627.321,164.502 630.5,160.5 Z"/></g>
<g><path style="opacity:0.875" fill="#999999" d="M 274.5,167.5 C 276.759,168.344 277.759,170.011 277.5,172.5C 275.75,171.341 274.75,169.674 274.5,167.5 Z"/></g>
<g><path style="opacity:0.733" fill="#8a8a8a" d="M 446.5,168.5 C 452.363,170.12 458.03,172.12 463.5,174.5C 457.334,173.668 451.667,171.668 446.5,168.5 Z"/></g>
<g><path style="opacity:0.122" fill="#6c6c6c" d="M 504.5,168.5 C 502.574,170.293 500.241,171.293 497.5,171.5C 499.426,169.707 501.759,168.707 504.5,168.5 Z"/></g>
<g><path style="opacity:0.125" fill="#686868" d="M 672.5,167.5 C 674.293,169.426 675.293,171.759 675.5,174.5C 673.707,172.574 672.707,170.241 672.5,167.5 Z"/></g>
<g><path style="opacity:0.435" fill="#757575" d="M 296.5,169.5 C 298.043,170.736 299.043,172.402 299.5,174.5C 292.602,176.893 285.602,177.06 278.5,175C 277.944,174.617 277.611,174.117 277.5,173.5C 284.109,174.423 290.776,174.756 297.5,174.5C 297.371,172.784 297.038,171.117 296.5,169.5 Z"/></g>
<g><path style="opacity:0.285" fill="#7c7c7c" d="M 497.5,171.5 C 494.497,173.262 491.163,174.428 487.5,175C 483.445,175.232 479.445,175.732 475.5,176.5C 471.697,175.896 468.031,175.23 464.5,174.5C 471.175,174.666 477.842,174.5 484.5,174C 488.72,172.658 493.053,171.825 497.5,171.5 Z"/></g>
<g><path style="opacity:0.446" fill="#717171" d="M 607.5,172.5 C 613.074,174.453 619.074,175.12 625.5,174.5C 625.082,175.222 624.416,175.722 623.5,176C 617.651,176.818 611.985,176.652 606.5,175.5C 606.263,174.209 606.596,173.209 607.5,172.5 Z"/></g>
<g><path style="opacity:0.359" fill="#777777" d="M 689.5,160.5 C 692.14,165.085 693.806,170.085 694.5,175.5C 688.537,176.53 682.537,176.697 676.5,176C 675.944,175.617 675.611,175.117 675.5,174.5C 681.537,174.829 687.537,174.496 693.5,173.5C 691.355,169.4 690.022,165.067 689.5,160.5 Z"/></g>
<g><path style="opacity:0.552" fill="#195a9c" d="M 185.5,159.5 C 189.167,159.5 192.833,159.5 196.5,159.5C 198.441,160.638 198.608,162.304 197,164.5C 194.833,168.167 192.667,171.833 190.5,175.5C 189.675,176.386 188.675,176.719 187.5,176.5C 165.993,176.831 144.66,176.497 123.5,175.5C 145.51,175.833 167.51,175.5 189.5,174.5C 191.922,170.495 193.589,166.162 194.5,161.5C 191.358,160.833 188.358,160.166 185.5,159.5 Z"/></g>
<g><path style="opacity:0.086" fill="#052e5d" d="M 127.5,159.5 C 126.85,161.435 126.517,163.435 126.5,165.5C 124.013,167.729 122.346,170.562 121.5,174C 121.836,175.03 122.503,175.53 123.5,175.5C 144.66,176.497 165.993,176.831 187.5,176.5C 164.973,177.807 142.307,177.807 119.5,176.5C 120.84,170.156 123.507,164.489 127.5,159.5 Z"/></g>
<g><path style="opacity:0.035" fill="#444444" d="M 73.5,178.5 C 73.573,180.027 72.9063,181.027 71.5,181.5C 71.427,179.973 72.0937,178.973 73.5,178.5 Z"/></g>
<g><path style="opacity:0.2" fill="#4b4b4b" d="M 57.5,178.5 C 59.5311,179.539 60.8645,181.205 61.5,183.5C 59.457,182.421 58.1237,180.754 57.5,178.5 Z"/></g>
<g><path style="opacity:0.004" fill="#262626" d="M 71.5,181.5 C 71.2624,183.404 70.2624,184.738 68.5,185.5C 68.5,185.167 68.5,184.833 68.5,184.5C 69.1667,183.167 70.1667,182.167 71.5,181.5 Z"/></g>
<g><path style="opacity:0.89" fill="#a3a3a3" d="M 68.5,184.5 C 68.5,184.833 68.5,185.167 68.5,185.5C 66.8333,189.5 65.1667,189.5 63.5,185.5C 65.1172,184.962 66.7839,184.629 68.5,184.5 Z"/></g>
</svg>
